<?xml version="1.0" standalone="no"?>
<!DOCTYPE svg PUBLIC "-//W3C//DTD SVG 20010904//EN"
 "http://www.w3.org/TR/2001/REC-SVG-20010904/DTD/svg10.dtd">
<svg version="1.0" xmlns="http://www.w3.org/2000/svg"
 width="45.000000pt" height="45.000000pt" viewBox="0 0 45.000000 45.000000"
 preserveAspectRatio="xMidYMid meet">

<g transform="translate(0.000000,45.000000) scale(0.100000,-0.100000)"
fill="#000000" stroke="none">
<path d="M17 433 c-18 -17 -1 -45 73 -118 44 -44 80 -84 80 -90 0 -6 -36 -46
-80 -90 -82 -82 -98 -117 -55 -123 14 -2 45 22 100 78 44 44 84 80 90 80 6 0
46 -36 90 -80 82 -82 117 -98 123 -55 2 14 -22 45 -78 100 -44 44 -80 84 -80
90 0 6 36 46 80 90 56 55 80 86 78 100 -6 43 -41 27 -123 -55 -44 -44 -84 -80
-90 -80 -6 0 -46 36 -90 80 -73 74 -101 91 -118 73z"/>
</g>
</svg>
