<svg width="36" height="41" viewBox="0 0 36 41" fill="none" xmlns="http://www.w3.org/2000/svg">
<path d="M32.9583 20.7039C32.7715 20.663 32.5777 20.6493 32.384 20.6493C32.1903 20.6493 31.9965 20.6698 31.8097 20.7039C30.5088 20.9703 29.5262 22.1039 29.5262 23.4697C29.5262 29.9299 24.1982 35.1814 17.6592 35.1814C11.1202 35.1814 5.79212 29.9231 5.79212 23.4697C5.79212 23.1624 5.81288 22.8619 5.83364 22.5683C5.84748 22.4385 5.8544 22.3088 5.86823 22.1858C5.88207 22.0424 5.90283 21.9058 5.92359 21.7624C5.97895 21.3868 6.05506 21.0181 6.14502 20.6561C7.26599 16.1832 10.9956 12.714 15.6525 11.9287V17.3919L27.7548 8.93761L15.6456 0.476501V6.2265C7.36978 7.15524 0.823873 13.7794 0.124998 22.0151C0.124998 22.0424 0.124998 22.0697 0.124998 22.0971C0.0903998 22.5478 0.0696411 23.0053 0.0696411 23.4697C0.0696411 23.7702 0.0765607 24.0638 0.0903998 24.3643C0.56093 33.5219 8.2624 40.8289 17.6592 40.8289C27.0559 40.8289 34.7505 33.5219 35.2279 24.3643C35.2418 24.0706 35.2487 23.7702 35.2487 23.4697C35.2487 22.1039 34.2661 20.9703 32.9652 20.7039H32.9583Z" fill="#20438E"/>
</svg>
