<svg width="52" height="49" viewBox="0 0 52 49" fill="none" xmlns="http://www.w3.org/2000/svg">
<g clip-path="url(#clip0_107_584)">
<path d="M6.1774 22.0204C5.31312 21.7628 4.82436 20.8505 5.08158 19.9877L6.2267 16.1466C6.485 15.2801 7.39601 14.7891 8.25669 15.0457C9.11737 15.3023 9.60974 16.2156 9.35251 17.0784L8.2074 20.9196C7.9491 21.786 7.03808 22.277 6.1774 22.0204Z" fill="white"/>
<path d="M9.09755 29.377C8.23327 29.1194 7.74451 28.2071 8.00173 27.3443L12.6995 11.5862C12.9578 10.7198 13.8688 10.2288 14.7295 10.4853C15.5902 10.7419 16.0825 11.6552 15.8253 12.5181L11.1275 28.2762C10.8692 29.1426 9.95823 29.6336 9.09755 29.377Z" fill="white"/>
<path d="M14.4023 28.7217C13.538 28.4641 13.0492 27.5518 13.3064 26.689L16.7795 15.0392C17.0378 14.1728 17.9488 13.6818 18.8095 13.9383C19.6701 14.1949 20.1625 15.1082 19.9053 15.9711L16.4333 27.6173C16.175 28.4837 15.264 28.9747 14.4033 28.7181L14.4023 28.7217Z" fill="white"/>
<path d="M17.5965 35.1458C16.7322 34.8882 16.2423 33.9795 16.5006 33.1131L22.9688 11.4164C23.2271 10.55 24.1381 10.059 24.9988 10.3155C25.8595 10.5721 26.3519 11.4854 26.0946 12.3483L19.6265 34.045C19.3682 34.9114 18.4571 35.4024 17.5965 35.1458Z" fill="white"/>
<path d="M20.6586 42.0259C19.7944 41.7683 19.3045 40.8596 19.5628 39.9932L29.2995 7.33259C29.5578 6.46617 30.4689 5.97516 31.3295 6.23174C32.1902 6.48832 32.6826 7.40164 32.4254 8.26446L22.6886 40.9251C22.4303 41.7915 21.5193 42.2825 20.6586 42.0259Z" fill="white"/>
<path d="M26.9847 37.9447C26.1204 37.687 25.6306 36.7784 25.8889 35.9119L32.3571 14.2152C32.6154 13.3488 33.5264 12.8578 34.3871 13.1144C35.2477 13.371 35.7401 14.2843 35.4829 15.1471L29.0147 36.8438C28.7564 37.7102 27.8454 38.2012 26.9847 37.9447Z" fill="white"/>
<path d="M33.1752 34.3183C32.3109 34.0606 31.8221 33.1484 32.0793 32.2856L35.5524 20.6358C35.8106 19.7693 36.7217 19.2783 37.5823 19.5349C38.443 19.7915 38.9354 20.7048 38.6782 21.5676L35.2062 33.2138C34.9479 34.0802 34.0369 34.5713 33.1762 34.3147L33.1752 34.3183Z" fill="white"/>
<path d="M37.2551 37.7713C36.3908 37.5136 35.902 36.6014 36.1593 35.7386L40.857 19.9805C41.1153 19.1141 42.0264 18.623 42.887 18.8796C43.7477 19.1362 44.2401 20.0495 43.9829 20.9123L39.2851 36.6704C39.0268 37.5369 38.1158 38.0279 37.2551 37.7713Z" fill="white"/>
<path d="M43.7268 33.2146C42.8625 32.9569 42.3738 32.0447 42.631 31.1819L43.7761 27.3407C44.0344 26.4743 44.9418 25.9822 45.8061 26.2399C46.6704 26.4975 47.1591 27.4098 46.9019 28.2726L45.7568 32.1137C45.4985 32.9802 44.5911 33.4722 43.7268 33.2146Z" fill="white"/>
</g>
<defs>
<clipPath id="clip0_107_584">
<rect width="42.4442" height="37.3509" fill="white" transform="translate(10.9901 0.168213) rotate(16.6003)"/>
</clipPath>
</defs>
</svg>
