<?xml version="1.0" encoding="utf-8"?>
<!-- Generator: Adobe Illustrator 27.7.0, SVG Export Plug-In . SVG Version: 6.00 Build 0)  -->
<svg version="1.1" id="Layer_1" xmlns="http://www.w3.org/2000/svg" xmlns:xlink="http://www.w3.org/1999/xlink" x="0px" y="0px"
	 viewBox="0 0 512 512" style="enable-background:new 0 0 512 512;" xml:space="preserve">
<style type="text/css">
	.st0{fill:#FFFFFF;}
</style>
<g>
	<path class="st0" d="M325.1,22h1.8c11.5,1.4,18.7,7,21.8,17c0.8,2.7,1.2,6.5,1.2,11.5c0,136.9,0,273.8,0,410.7
		c0,5.2-0.4,9.2-1.3,11.9c-3.1,10-10.5,15.7-22.1,17h-1.1c-11.8-1.4-19.1-7.1-22.2-17c-0.9-2.9-1.3-7.6-1.3-14
		c0-134.6,0-269.1,0-403.7c0-7.9,0.5-13.4,1.4-16.5C306.3,29.1,313.5,23.6,325.1,22z"/>
	<path class="st0" d="M255.7,82.2h0.7c13,0,23.6,10.6,23.6,23.6v300.4c0,13-10.6,23.6-23.6,23.6h-0.7c-13,0-23.6-10.6-23.6-23.6
		V105.8C232,92.8,242.6,82.2,255.7,82.2z"/>
	<path class="st0" d="M109.8,112.9c11.6-3.4,25,3.6,28.9,15.4c0.8,2.4,1.2,6.4,1.2,11.9c0,78.3,0,156.5,0,234.8
		c0,9-3.5,15.9-10.5,20.7c-13,9-31.3,2.7-36.1-12.2c-1-3-1.5-8.6-1.5-16.8c0-76.4,0-152.9,0-229.3C92,125.6,98.5,116.2,109.8,112.9z
		"/>
	<path class="st0" d="M395.7,112.2h0.8c13,0,23.5,10.5,23.5,23.5v240.5c0,13-10.5,23.5-23.5,23.5h-0.8c-13,0-23.5-10.5-23.5-23.5
		V135.7C372.1,122.7,382.7,112.2,395.7,112.2z"/>
	<path class="st0" d="M163.4,158.5c7.1-22.3,39.2-21.5,45.6,1c0.7,2.3,1,6.7,1,13.1c0,54.8,0,109.6,0,164.4c0,7.8-0.4,13.2-1.3,16.1
		c-6.9,22.8-40,21.9-45.9-1.1c-0.5-2-0.7-4.9-0.7-8.9c0-57.1,0-114.3,0-171.4C162.1,165.7,162.5,161.3,163.4,158.5z"/>
	<path class="st0" d="M22,317V195.2c1.5-18.8,21.6-29.6,37.6-18.8c9,6.1,10.3,14.8,10.3,26.1c0,37.5,0,75-0.1,112.5
		C69.7,346.7,25.2,348.7,22,317z"/>
	<path class="st0" d="M490,225.2v61.7c-1.4,13.2-11.5,24.1-25.7,22.9c-9.9-0.8-18-7.3-21-16.4c-0.9-2.8-1.3-7.3-1.4-13.4
		c0-17.7,0-35.3,0.1-53C442.2,195.7,486,192.9,490,225.2z"/>
</g>
</svg>
