<svg id="Layer_1" data-name="Layer 1" xmlns="http://www.w3.org/2000/svg" viewBox="0 0 21.8 21.66"><defs><style>.cls-1{fill:#1b242f;}.cls-2{fill:#d6d6d6;}.cls-3{fill:#fcfcfc;}.cls-4{fill:#1b252f;}</style></defs><path class="cls-1" d="M21.36,10.09H.41s-.24.06-.24,2c0,.55.46,9.14.46,9.14H5.75l.7-1A.81.81,0,0,1,6.69,20,.67.67,0,0,1,7,19.92a.64.64,0,0,1,.31.07.61.61,0,0,1,.24.21l.42.6a1.08,1.08,0,0,0,.34.3,1,1,0,0,0,.45.11H13a1,1,0,0,0,.45-.11,1,1,0,0,0,.34-.3l.42-.59a.61.61,0,0,1,.24-.21.65.65,0,0,1,.31-.08.68.68,0,0,1,.31.08.69.69,0,0,1,.24.21l.7,1h5.13s.43-8.59.43-9.14C21.6,10.15,21.36,10.09,21.36,10.09Z"/><path class="cls-2" d="M11.09,0h0a7.18,7.18,0,0,1,1,.1,6.27,6.27,0,0,1,1.36.4,4.6,4.6,0,0,1,1.07.64,3.75,3.75,0,0,1,.74.8,2.4,2.4,0,0,1,.35.82,1.51,1.51,0,0,1,0,.73,1.79,1.79,0,0,1-.25.52,4.64,4.64,0,0,1-.63.7l-.69.63c-.18.15-.36.31-.53.48s-.26.24-.38.37a4.32,4.32,0,0,0-.47.57,1,1,0,0,0-.18.58v.34c0,.22,0,.45,0,.66s0,.35,0,.53,0,.34,0,.51l.06.56c0,.16,0,.32.05.49s0,.4.07.61.05.37.07.55.07.54.11.81,0,.32.07.48l.13,1,.09.58.12.78c.08.51.16,1,.25,1.54.06.36.12.72.19,1.09s.16.88.25,1.32a3.43,3.43,0,0,0,.27.82.72.72,0,0,0,.18.25.78.78,0,0,0,.26.17,1.35,1.35,0,0,0,.35.06h.47l.61,0v.84h-1.1a2.19,2.19,0,0,1-.72-.14,1.38,1.38,0,0,1-.53-.4,2.36,2.36,0,0,1-.42-.78,8.29,8.29,0,0,1-.3-1.19L13.07,18l-.21-1.22c-.07-.37-.13-.75-.19-1.12s-.11-.74-.17-1.11-.09-.63-.14-.95-.07-.55-.11-.82-.07-.54-.11-.82l-.09-.78c0-.19-.05-.38-.07-.58s0-.34-.05-.52,0-.29,0-.45,0-.27,0-.4,0-.33,0-.49,0-.2,0-.3,0-.45,0-.68a3.06,3.06,0,0,1,0-.74,2.09,2.09,0,0,1,.44-.91c.26-.3.53-.58.81-.85s.33-.3.5-.46L14,4.38l.48-.45a2.28,2.28,0,0,0,.39-.48.41.41,0,0,0,.08-.24,1.45,1.45,0,0,0,0-.29,2,2,0,0,0-.38-.7,3.58,3.58,0,0,0-1.28-.93A5.11,5.11,0,0,0,12,.93c-.22,0-.44-.06-.66-.08a5.45,5.45,0,0,0-.7,0,5.56,5.56,0,0,0-1.52.25,4.2,4.2,0,0,0-.74.29,3.34,3.34,0,0,0-1,.74A2.06,2.06,0,0,0,6.88,3a1,1,0,0,0,0,.3A.62.62,0,0,0,7,3.5a1.93,1.93,0,0,0,.22.28,4.11,4.11,0,0,0,.29.3L8,4.54l.35.32c.26.23.51.45.75.7a6.3,6.3,0,0,1,.58.68A1.83,1.83,0,0,1,10,7a2.59,2.59,0,0,1,0,.56c0,.19,0,.38,0,.57s0,.41,0,.62,0,.44-.05.66-.05.58-.08.87-.05.47-.08.71,0,.43-.08.64l-.09.75L9.5,13,9.35,14c0,.23-.06.45-.1.67-.06.38-.11.76-.17,1.13s-.15.94-.23,1.41-.17,1-.26,1.42a7.7,7.7,0,0,1-.23,1.06,3.71,3.71,0,0,1-.39.89,1.54,1.54,0,0,1-.44.44,1.4,1.4,0,0,1-.59.21,1.58,1.58,0,0,1-.38,0H6.11c-.18,0-.36,0-.54,0s-.06,0-.06-.06v-.72c0-.06,0-.06.06-.06h1a1.09,1.09,0,0,0,.5-.13A1,1,0,0,0,7.37,20a2.69,2.69,0,0,0,.22-.62c.09-.34.15-.7.21-1.05s.09-.45.13-.67c.07-.45.15-.9.22-1.36s.13-.76.19-1.14.1-.63.14-.95.11-.73.16-1.1.08-.55.11-.83.05-.37.07-.56.06-.43.08-.64.07-.56.1-.84.05-.52.08-.77,0-.45.05-.68,0-.42,0-.63,0-.29,0-.44,0-.23,0-.34a1.15,1.15,0,0,0-.29-.77c-.2-.23-.41-.46-.63-.67s-.38-.36-.57-.53L7.22,5l-.43-.39a3.8,3.8,0,0,1-.57-.7A1.42,1.42,0,0,1,6,3.37a1.67,1.67,0,0,1,0-.5,2.36,2.36,0,0,1,.42-1,3.23,3.23,0,0,1,.38-.45A4.32,4.32,0,0,1,7.77.75,5.16,5.16,0,0,1,8.85.29a6.21,6.21,0,0,1,1-.22A4.71,4.71,0,0,1,10.63,0h.46Z"/><path class="cls-3" d="M15.63,21.29h0c.2,0,.41,0,.61,0,0,0,0,0,0,0h-.63Z"/><path class="cls-4" d="M21.49,19H15.82a3.82,3.82,0,0,1-.51.75.86.86,0,0,0-.21.55.79.79,0,0,0,.21.55,3,3,0,0,1,.49.75h5.7c.16,0,.3-.59.3-1.3S21.66,19,21.49,19Z"/><path class="cls-4" d="M6,19.05H.3c-.17,0-.3.58-.3,1.3s.14,1.3.3,1.3H6a2.85,2.85,0,0,1,.49-.75.81.81,0,0,0,.21-.55.82.82,0,0,0-.22-.55A3.82,3.82,0,0,1,6,19.05Z"/></svg>