<svg id="Layer_1" data-name="Layer 1" xmlns="http://www.w3.org/2000/svg" xmlns:xlink="http://www.w3.org/1999/xlink" viewBox="0 0 128.23 89"><defs><style>.cls-1{fill:#fff;}.cls-2{mask:url(#mask);}.cls-3{fill:#f2f2f2;}.cls-4{fill:#75a240;}.cls-5{fill:#e21e26;}.cls-6{fill:#f8ec1f;}.cls-7{fill:#20438e;}.cls-8{fill:#211614;}</style><mask id="mask" x="-0.01" y="0" width="128.24" height="89" maskUnits="userSpaceOnUse"><g id="mask0_283_252" data-name="mask0 283 252"><path class="cls-1" d="M128.22,0H0V89H128.22Z"/></g></mask></defs><g class="cls-2"><path class="cls-3" d="M128.23,53.26a5.46,5.46,0,0,0-2.42-4.51l-10.89-7.34-.27-1A35.16,35.16,0,0,0,58.11,23.25l-.61-.41-.8-.52-.77-.47-.11-.07-.24-.14-.9-.51-.56-.29-.7-.35c-.09,0-.17-.09-.26-.12l7-9.74a6.63,6.63,0,0,0,.51-7A6.81,6.81,0,0,0,54.65,0H33.42a6.85,6.85,0,0,0-5.55,2.82l-.94,1.3c-2,2.73-6.69,9.21-11,15.18l-5.2,7.2L8.89,29.06C7.48,31,7.27,31.3,7.13,31.53l0,0c-1,1.63-4.46,7.24-5.59,11A35.46,35.46,0,0,0,0,52.82a36.59,36.59,0,0,0,.31,4.66c.12.94.29,1.89.49,2.84A36.78,36.78,0,0,0,24,86.72l.92.32.15,0A37.41,37.41,0,0,0,59.2,81.62c.33-.24.71-.54,1.1-.86l.65-.53c.34-.3.7-.6,1.06-.93l.53-.51a35,35,0,0,0,18.35,5.15H122a6.73,6.73,0,0,0,6.2-6.57V53.25Zm-19.55,3.09h0v0Z"/></g><path class="cls-4" d="M80.89,23.9a26,26,0,0,0-18.18,7.39c-.46.45-.9.92-1.33,1.4A25.26,25.26,0,0,0,64.27,69c.49.41,1,.8,1.54,1.17A25.9,25.9,0,0,0,80.89,75V73.05a24,24,0,0,1-14.12-4.56c-.52-.38-1-.79-1.53-1.21A23.37,23.37,0,0,1,62.6,34.21c.43-.5.87-1,1.33-1.43a24.1,24.1,0,0,1,36.8,3.44,3.4,3.4,0,0,1,1.94-.54A25.92,25.92,0,0,0,80.89,23.9Z"/><path class="cls-5" d="M80.89,29.93a19.82,19.82,0,0,0-14.58,6.36A18,18,0,0,0,65,37.87,19.27,19.27,0,0,0,67,63.3a18.17,18.17,0,0,0,1.55,1.36,19.83,19.83,0,0,0,12.32,4.27V67a17.92,17.92,0,0,1-11.65-4.29,18.49,18.49,0,0,1-1.56-1.51A17.36,17.36,0,0,1,66,39.8a16.77,16.77,0,0,1,1.29-1.72,17.94,17.94,0,0,1,28.4,1.54l1.6-1.07a19.82,19.82,0,0,0-16.39-8.62"/><path class="cls-6" d="M80.89,36a13.69,13.69,0,0,0-11.74,6.62,13.19,13.19,0,0,0-1.9,6.85,13.3,13.3,0,0,0,1.49,6.12A14,14,0,0,0,70.37,58a13.73,13.73,0,0,0,8.11,4.68V60.75a11.77,11.77,0,0,1-7.78-5.61,11.42,11.42,0,0,1-.78-9.78A11.77,11.77,0,0,1,90.62,43L92.22,42a13.69,13.69,0,0,0-11.34-6"/><path class="cls-7" d="M87,67a.31.31,0,0,1,.08-.22.45.45,0,0,1,.3-.1h5V67a.29.29,0,0,1-.08.22.37.37,0,0,1-.29.09H87.41a1.29,1.29,0,0,0-.32,0H87V67Z"/><path class="cls-7" d="M96.53,68.19v1.4a.31.31,0,0,0,0,.08s0,0,0,0a.05.05,0,0,1,0,0H96s0,0,0,0l0,0s0,0,0,0a1.25,1.25,0,0,1,0-.24V68.19H94.57A.78.78,0,0,1,94,68a.6.6,0,0,1-.14-.44V65.23a.54.54,0,0,1,.62-.62H98a.76.76,0,0,1,.54.17.58.58,0,0,1,.15.43v2.35a.6.6,0,0,1-.16.46.61.61,0,0,1-.47.16H96.53Zm-.6-2.09v-.91H94.74a.27.27,0,0,0-.2.06.21.21,0,0,0,0,.15v.7h1.43Zm0,1.51v-1H94.49v.72a.19.19,0,0,0,.23.23ZM98,65.42a.24.24,0,0,0-.06-.18.22.22,0,0,0-.17,0H96.53v.91H98Zm-1.5,2.19H97.8a.3.3,0,0,0,.18,0,.22.22,0,0,0,0-.17v-.73h-1.5v1Z"/><path class="cls-7" d="M103.91,65.21h-3a.22.22,0,0,0-.15.08l-.09.09V65a.29.29,0,0,1,.08-.24.23.23,0,0,1,.16-.06h3.52c.3,0,.45.11.45.34a.13.13,0,0,1,0,.06,1.16,1.16,0,0,1-.3.31,5.78,5.78,0,0,1-.81.52l-.25.14a2.3,2.3,0,0,0-.42.26.4.4,0,0,0-.06.24v.29h2a.56.56,0,0,0,.27,0l.08,0v.41s0,0,0,0a0,0,0,0,1,0,0s0,0,0,0,0,0,0,0a.36.36,0,0,1-.31.13h-2V69a.72.72,0,0,1-.19.55.7.7,0,0,1-.52.18h-.44a.33.33,0,0,1-.26-.08.33.33,0,0,1,.08-.5.54.54,0,0,1,.19,0h.34a.25.25,0,0,0,.17,0,.23.23,0,0,0,0-.16V67.39h-2.06a.22.22,0,0,0-.15.08l-.09.09v-.41a.33.33,0,0,1,.08-.26.21.21,0,0,1,.16-.06h2.06v-.34a.74.74,0,0,1,.13-.48,3.63,3.63,0,0,1,.7-.42,4.49,4.49,0,0,0,.59-.34h0Z"/><path class="cls-7" d="M106.74,69.11V65.86a.46.46,0,0,1,.13-.37.45.45,0,0,1,.35-.13h.25c0-.17.07-.39.1-.68a.31.31,0,0,1,.09-.19.33.33,0,0,1,.21-.06.32.32,0,0,1,.23.07.29.29,0,0,1,.08.21.82.82,0,0,1,0,.18,4.68,4.68,0,0,1-.11.47h.37a.43.43,0,0,1,.48.5v3.25a.53.53,0,0,1-.11.36.51.51,0,0,1-.37.13h-1.18a.51.51,0,0,1-.36-.13.5.5,0,0,1-.14-.37m1.6-3.07a.14.14,0,0,0,0-.11.13.13,0,0,0-.1,0h-.74a.14.14,0,0,0-.12,0,.2.2,0,0,0,0,.09v1.1h1V66Zm-1,1.62v1.27a.16.16,0,0,0,0,.11.24.24,0,0,0,.1,0h.74a.2.2,0,0,0,.1,0,.16.16,0,0,0,0-.11V67.65Zm2.74,1.54a.37.37,0,0,1,.25-.08,5.52,5.52,0,0,0,.56,0A.34.34,0,0,0,111,69a.3.3,0,0,0,.07-.15,1.61,1.61,0,0,0,.07-.39c0-.19,0-.44,0-.74,0-.6.05-1.18.05-1.72a.15.15,0,0,0,0-.12.23.23,0,0,0-.16,0H109.8a2.94,2.94,0,0,1-.35.68.28.28,0,0,1-.24.16.26.26,0,0,1-.18-.07.22.22,0,0,1-.11-.19.49.49,0,0,1,0-.19,4.46,4.46,0,0,0,.36-.75,8.61,8.61,0,0,0,.27-.85.32.32,0,0,1,.1-.17.28.28,0,0,1,.19-.07.13.13,0,0,1,.08,0,.34.34,0,0,1,.16.07.25.25,0,0,1,.07.18.78.78,0,0,1,0,.14q0,.17-.09.3l-.08.22h1.3a.58.58,0,0,1,.44.14.45.45,0,0,1,.12.33c0,.72,0,1.41-.06,2.08a5.14,5.14,0,0,1-.19,1.35.68.68,0,0,1-.35.36,2,2,0,0,1-.68.09h-.27a.34.34,0,0,1-.27-.09.28.28,0,0,1-.08-.2.29.29,0,0,1,.08-.21m-.6-2.16a.26.26,0,0,1,.26-.26.39.39,0,0,1,.24.12,2.49,2.49,0,0,1,.27.34,3,3,0,0,1,.26.44.69.69,0,0,1,.08.25.26.26,0,0,1-.08.19.32.32,0,0,1-.2.07.29.29,0,0,1-.21-.09,1,1,0,0,1-.14-.2c-.07-.13-.18-.3-.32-.52l-.08-.12-.06-.11A.65.65,0,0,1,109.45,67Z"/><path class="cls-7" d="M114.09,68.21a2.7,2.7,0,0,1-.34,1,.63.63,0,0,1-.07.12l-.05.06a.27.27,0,0,1-.2.09.28.28,0,0,1-.27-.14.33.33,0,0,1,0-.15.27.27,0,0,1,0-.13.29.29,0,0,0,0-.1,3.4,3.4,0,0,0,.31-.75.26.26,0,0,1,.27-.23A.29.29,0,0,1,114,68a.23.23,0,0,1,.07.18m1.36-.23a.27.27,0,0,1,.08-.19.18.18,0,0,1,.07-.05h-1.3a.75.75,0,0,1-.52-.16.49.49,0,0,1-.13-.38V65.13a.57.57,0,0,1,0-.12.48.48,0,0,1,0-.14.36.36,0,0,1,.08-.12.62.62,0,0,1,.46-.15h3c.34,0,.56.12.63.35a.65.65,0,0,1,0,.2v2a.61.61,0,0,1-.16.47.6.6,0,0,1-.43.14h-1.49a.54.54,0,0,1,.14.11c.15.13.26.25.34.33a.35.35,0,0,1,.1.22.25.25,0,0,1-.09.19.31.31,0,0,1-.2.07.39.39,0,0,1-.24-.12,2.06,2.06,0,0,1-.21-.21l-.14-.18a.3.3,0,0,1-.09-.19m.49-1.94s0,0,0,.06a.7.7,0,0,1,.25.1l.72.35.24.13.13.1a.32.32,0,0,1,0,.14.26.26,0,0,1-.07.19.23.23,0,0,1-.16.06.46.46,0,0,1-.19,0l-.29-.17-.73-.43a.14.14,0,0,1-.08-.07,2,2,0,0,1-.52.48,1.38,1.38,0,0,1-.72.25.24.24,0,0,1-.23-.12.25.25,0,0,1,0-.13c0-.11.08-.18.24-.24l.42-.16a1.05,1.05,0,0,0,.28-.19.8.8,0,0,0,.19-.3h-.77a.24.24,0,0,0-.18.07l-.09.09v-.4a.22.22,0,0,1,.06-.17.28.28,0,0,1,.2-.07h.85a2,2,0,0,1,0-.23.21.21,0,0,1,.08-.17l0,0h-1.19c-.09,0-.15,0-.17.08a.2.2,0,0,0,0,.11V67c0,.06,0,.11,0,.13a.18.18,0,0,0,.15,0h2.75a.22.22,0,0,0,.15,0,.21.21,0,0,0,0-.14V65.31a.18.18,0,0,0,0-.14.2.2,0,0,0-.14,0h-1.24a.23.23,0,0,1,.1.12s0,.05,0,.08,0,.09,0,.24h1a.29.29,0,0,0,.18-.08l.09-.08v.4a.21.21,0,0,1-.06.16A.27.27,0,0,1,117,66h-1Zm1.35,2.66a1.83,1.83,0,0,1,0,.44.68.68,0,0,1-.17.29.89.89,0,0,1-.37.14,6.75,6.75,0,0,1-.9,0,8.44,8.44,0,0,1-1,0,.5.5,0,0,1-.32-.14.49.49,0,0,1-.1-.34v-.92a1,1,0,0,1,0-.28s0,0,0,0a.05.05,0,0,1,0,0h.38l0,0a.07.07,0,0,1,0,0l0,.06s0,.13,0,.22v.74A.12.12,0,0,0,115,69a.65.65,0,0,0,.24,0h.51a4.13,4.13,0,0,0,.56,0,.47.47,0,0,0,.23,0s.06-.08.08-.17a.43.43,0,0,0,0-.11.42.42,0,0,1,.11-.27.21.21,0,0,1,.18-.07.28.28,0,0,1,.3.3m1,.1a.62.62,0,0,1,.11.26.29.29,0,0,1-.1.22.38.38,0,0,1-.23.08c-.11,0-.21-.07-.3-.22a6.12,6.12,0,0,0-.43-.73.38.38,0,0,1-.1-.21.19.19,0,0,1,.08-.17.26.26,0,0,1,.19-.07.35.35,0,0,1,.28.15l.37.51.12.19Z"/><path class="cls-7" d="M90.06,74a.27.27,0,0,0-.2.07l-.09.08V73.8a3.34,3.34,0,0,1-.42.35.5.5,0,0,1-.27.1H89v.38a.24.24,0,0,1-.07.2.26.26,0,0,1-.2.07h-.27v1l.21,0,.18,0,.11,0a.21.21,0,0,1,.16.06.24.24,0,0,1,.07.2c0,.09-.06.16-.19.23a6.87,6.87,0,0,1-.87.27c-.46.12-.7.19-.74.19l-.13,0a.26.26,0,0,1-.2-.07.27.27,0,0,1-.07-.21.23.23,0,0,1,.07-.17.42.42,0,0,1,.22-.11V74.1s0,0,0-.07,0,0,0,0a.06.06,0,0,1,0,0h.32s0,0,.05,0l0,0a.24.24,0,0,1,0,.08V76L88,76V73.72h-.18a.48.48,0,0,1-.37-.13.49.49,0,0,1-.13-.38v-.92a.45.45,0,0,1,.5-.5h.72a.43.43,0,0,1,.49.49v.93a.52.52,0,0,1-.13.37.49.49,0,0,1-.37.13h0v.65h.27a.28.28,0,0,0,.18-.06l.09-.06a.23.23,0,0,1-.12-.06.31.31,0,0,1-.07-.21c0-.1.07-.19.22-.28a2.42,2.42,0,0,0,.89-.91h-.62a.37.37,0,0,0-.23.06L89,72.9v-.38a.25.25,0,0,1,.07-.18.32.32,0,0,1,.25-.08h.79q0-.23.06-.36a.36.36,0,0,1,.19-.31l.1,0a.25.25,0,0,1,.24.11.29.29,0,0,1,0,.14,2.34,2.34,0,0,1-.06.44H92a.54.54,0,0,0,.24-.05l.08-.07v.38a.29.29,0,0,1-.07.19.36.36,0,0,1-.25.07h-.8a1.85,1.85,0,0,0,.94.84.47.47,0,0,1,.18.12.23.23,0,0,1,.07.16.27.27,0,0,1-.28.28.64.64,0,0,1-.32-.12,3.26,3.26,0,0,1-.36-.29v0a.21.21,0,0,1-.07.17.29.29,0,0,1-.22.07H90.06Zm-2.26-1a.1.1,0,0,0,.11.11h.46a.1.1,0,0,0,.11-.11V72.4s0-.07,0-.08a.12.12,0,0,0-.09,0h-.46a.12.12,0,0,0-.09,0,.15.15,0,0,0,0,.08Zm4.43,1.49a.24.24,0,0,1-.07.18.33.33,0,0,1-.21.06h-1.7l-.08.36h0l0,0h1.25a.52.52,0,0,1,.38.12.4.4,0,0,1,.11.29,3.55,3.55,0,0,1-.08.57.81.81,0,0,1-.35.54,1.15,1.15,0,0,1-.4.11,3.64,3.64,0,0,1-.57,0,.5.5,0,0,1-.36-.1.24.24,0,0,1-.08-.19.26.26,0,0,1,.08-.2.2.2,0,0,1,.11-.06h.35a2.69,2.69,0,0,0,.46,0,.53.53,0,0,0,.16-.06.69.69,0,0,0,.12-.45s0-.05,0-.05a.15.15,0,0,0-.1,0H90a1.74,1.74,0,0,0-.38,0h-.06v-.34a4.41,4.41,0,0,1,.12-.55h-.39a.32.32,0,0,0-.2.07L89,75v-.39a.29.29,0,0,1,.06-.19.34.34,0,0,1,.22-.07h2.62a.26.26,0,0,0,.19-.07l.09-.07v.4Zm-1-1a2.81,2.81,0,0,1-.52-.75H90.5a3.24,3.24,0,0,1-.49.75h1.17Z"/><path class="cls-7" d="M94.34,76v-2.5h-.46a.58.58,0,0,0-.27,0l-.08,0v-.37a.28.28,0,0,1,.07-.2.37.37,0,0,1,.27-.09h.46V72a1,1,0,0,1,0-.2.15.15,0,0,1,0-.08s0,0,0,0a.05.05,0,0,1,0,0h.41a.08.08,0,0,1,0,0,.08.08,0,0,1,0,0,.24.24,0,0,1,0,.08V73h1V72a.28.28,0,0,1,0-.14.15.15,0,0,1,0-.08s0,0,0,0h.38s0,0,0,0a.12.12,0,0,1,0,.08.46.46,0,0,1,0,.14v1h1V72a.92.92,0,0,1,0-.19.13.13,0,0,1,0-.08.08.08,0,0,1,0,0l0,0H98s0,0,.06,0a.34.34,0,0,1,0,.08s0,.13,0,.22v1h.47a.23.23,0,0,0,.16-.08l.09-.09v.41a.37.37,0,0,1-.09.27.21.21,0,0,1-.16.06h-.47v1.24c0,.33-.11.52-.34.58l-.17,0h-1a.68.68,0,0,1-.47-.14.53.53,0,0,1-.14-.39v-1.3h-1v2.31A.23.23,0,0,0,95,76a.23.23,0,0,0,.16,0h3.22a.91.91,0,0,0,.27,0l.07,0v.36a.38.38,0,0,1-.07.21.41.41,0,0,1-.27.08H95a.62.62,0,0,1-.5-.19.59.59,0,0,1-.16-.43m3-1.22a.19.19,0,0,0,.2-.19v-1.1h-1v1.1a.17.17,0,0,0,.06.14.16.16,0,0,0,.14,0h.59Z"/><path class="cls-7" d="M101.84,71.84a4.28,4.28,0,0,1-.46,1.09v3.62a.57.57,0,0,1,0,.14.34.34,0,0,1,0,.08l-.06,0h-.35l-.05,0s0,0,0-.08,0-.08,0-.14V74c-.09.15-.14.24-.18.29a2,2,0,0,1-.19.26.24.24,0,0,1-.18.1.2.2,0,0,1-.17-.08.28.28,0,0,1-.06-.18.43.43,0,0,1,0-.17,1.28,1.28,0,0,1,.12-.21,9.31,9.31,0,0,0,1-2.11.5.5,0,0,1,.13-.23.25.25,0,0,1,.18-.08.36.36,0,0,1,.25.08.24.24,0,0,1,.07.19m1,1.32c0-.4-.06-.83-.06-1.3a.25.25,0,0,1,.08-.21.26.26,0,0,1,.2-.08.34.34,0,0,1,.22.07.28.28,0,0,1,.08.2v.29c0,.34,0,.67,0,1l.73-.07L105,73h.06a.29.29,0,0,1,.21.06.32.32,0,0,1,.07.2.2.2,0,0,1-.07.16.32.32,0,0,1-.22.09l-.16,0-.28,0-1.19.1a5.19,5.19,0,0,0,.33,1.37,2.63,2.63,0,0,0,.63,1,.84.84,0,0,0,.29.19h0s.1-.06.14-.19,0-.24.06-.43a.21.21,0,0,1,.11-.21.28.28,0,0,1,.13,0c.14,0,.22,0,.25.16a.53.53,0,0,1,0,.13,2.43,2.43,0,0,1-.14.88.62.62,0,0,1-.29.35.39.39,0,0,1-.15,0,1,1,0,0,1-.67-.3,2.94,2.94,0,0,1-.51-.6,4.88,4.88,0,0,1-.77-2.23l-.77.08-.17,0h-.22c-.14,0-.22,0-.25-.15s0-.07,0-.12a.29.29,0,0,1,.07-.19.4.4,0,0,1,.21-.07l.89-.08.2,0m1.05-1.08a.21.21,0,0,1,.07-.17.33.33,0,0,1,.24-.07.26.26,0,0,1,.17.08l.23.21a1.38,1.38,0,0,1,.26.33s0,0,0,.08a.15.15,0,0,1,0,.09.23.23,0,0,1-.1.12.48.48,0,0,1-.18,0,.36.36,0,0,1-.25-.15,1.49,1.49,0,0,1-.17-.18l-.11-.14a.63.63,0,0,1-.15-.23"/><path class="cls-7" d="M106.74,76.27V73a.48.48,0,0,1,.13-.37.45.45,0,0,1,.35-.13h.25c0-.16.07-.39.1-.68a.31.31,0,0,1,.09-.19.33.33,0,0,1,.21-.06.28.28,0,0,1,.23.08.25.25,0,0,1,.08.2,1,1,0,0,1,0,.19,4.46,4.46,0,0,1-.11.46h.37a.52.52,0,0,1,.36.12.54.54,0,0,1,.12.38v3.25a.58.58,0,0,1-.11.37.55.55,0,0,1-.37.12h-1.18a.51.51,0,0,1-.36-.13.5.5,0,0,1-.14-.37m1.6-3.07a.16.16,0,0,0,0-.11.13.13,0,0,0-.1,0h-.74a.14.14,0,0,0-.12,0,.24.24,0,0,0,0,.09v1.1h1v-1.1Zm-1,1.62v1.27a.16.16,0,0,0,0,.11.15.15,0,0,0,.1,0h.74a.13.13,0,0,0,.1,0,.16.16,0,0,0,0-.11V74.81Zm2.74,1.54a.37.37,0,0,1,.25-.08,5.52,5.52,0,0,0,.56,0,.34.34,0,0,0,.16-.06.3.3,0,0,0,.07-.15,1.61,1.61,0,0,0,.07-.39c0-.19,0-.44,0-.74,0-.6.05-1.18.05-1.72a.16.16,0,0,0,0-.12.24.24,0,0,0-.16,0H109.8a3.11,3.11,0,0,1-.35.67.26.26,0,0,1-.24.16.26.26,0,0,1-.18-.07.21.21,0,0,1-.11-.19.41.41,0,0,1,0-.18,4.5,4.5,0,0,0,.36-.76c.1-.25.18-.53.27-.84a.35.35,0,0,1,.1-.18.28.28,0,0,1,.19-.07.13.13,0,0,1,.08,0,.34.34,0,0,1,.16.07.25.25,0,0,1,.07.18.78.78,0,0,1,0,.14q0,.17-.09.3l-.08.22h1.3a.58.58,0,0,1,.44.14.45.45,0,0,1,.12.33c0,.72,0,1.41-.06,2.08a5.14,5.14,0,0,1-.19,1.35.68.68,0,0,1-.35.36,2,2,0,0,1-.68.09h-.27a.34.34,0,0,1-.27-.09.28.28,0,0,1-.08-.2.29.29,0,0,1,.08-.21m-.6-2.16a.26.26,0,0,1,.26-.26.39.39,0,0,1,.24.12,3.34,3.34,0,0,1,.27.34,3,3,0,0,1,.26.44.69.69,0,0,1,.08.25.26.26,0,0,1-.08.19.32.32,0,0,1-.41,0,1.51,1.51,0,0,1-.14-.21c-.07-.13-.18-.29-.32-.52l-.08-.12a.74.74,0,0,1-.06-.11A.65.65,0,0,1,109.45,74.19Z"/><path class="cls-7" d="M113.54,73.55v-.34a.57.57,0,0,1,.12-.39.46.46,0,0,1,.32-.1h.69s0,0,0-.06a.42.42,0,0,1,0-.17v-.08h-1.2a.25.25,0,0,0-.18.08l-.09.08v-.4a.25.25,0,0,1,.07-.19.3.3,0,0,1,.2-.06h1.2v-.09a.71.71,0,0,1,0-.16.34.34,0,0,1,0-.08.09.09,0,0,1,.06,0h.35s0,0,0,0,0,.11,0,.24v.09h1.25v-.09a.71.71,0,0,1,0-.16c0-.06,0-.09.06-.1h.38s0,0,0,0a.19.19,0,0,1,0,.09s0,.09,0,.15v.1h1.23a.27.27,0,0,0,.19-.08l.09-.08v.4a.24.24,0,0,1-.07.18.31.31,0,0,1-.21.07H117v.08a.45.45,0,0,1,0,.13s0,0,0,.06l0,0h.65a.55.55,0,0,1,.41.13.4.4,0,0,1,.1.3v.36a.51.51,0,0,1-.12.38.42.42,0,0,1-.31.11h-3.57c-.27,0-.43-.09-.48-.28a.44.44,0,0,1,0-.16m-.09,3.07a.21.21,0,0,1,.07-.17.42.42,0,0,1,.27-.1,7,7,0,0,0,1.48-.21l-.21-.14-.33-.23a.19.19,0,0,1,0-.27.28.28,0,0,1,.23-.08.8.8,0,0,1,.3.12q.23.12.63.39a4.81,4.81,0,0,0,.68-.36,2,2,0,0,0,.31-.22h-2a4,4,0,0,1-.9.57l-.15,0a.26.26,0,0,1-.2-.07.3.3,0,0,1-.07-.2c0-.09.09-.19.28-.29a.53.53,0,0,1,.15-.08,3.44,3.44,0,0,0,.91-.64h-1a.21.21,0,0,0-.12,0,.13.13,0,0,0,0,.1v.29a.76.76,0,0,1,0,.17.14.14,0,0,1,0,.07s0,0,0,0h0a0,0,0,0,0,0,0h-.39a.08.08,0,0,1,0,0l0,0s0,0,0-.07,0-.09,0-.17v-.4a.57.57,0,0,1,.13-.39.55.55,0,0,1,.4-.13h4a.69.69,0,0,1,.47.14.53.53,0,0,1,.12.37v.39a.78.78,0,0,1,0,.28l0,0H118s-.08,0-.09-.11a.81.81,0,0,1,0-.17v-.3a.21.21,0,0,0,0-.11.15.15,0,0,0-.1,0h-2.13l-.19.21h1.91a.49.49,0,0,1,.35.1.25.25,0,0,1,.06.17.31.31,0,0,1,0,.15,1.27,1.27,0,0,1-.16.2,5.38,5.38,0,0,1-.67.51,5.64,5.64,0,0,1-2.14.77l-.82.11h-.17a.22.22,0,0,1-.18-.06.26.26,0,0,1-.07-.2m1.42-3.06v-.42h-.7a.1.1,0,0,0-.08,0,.12.12,0,0,0,0,.09v.2a.1.1,0,0,0,0,.08l.08,0h.7Zm1.53-1.07v-.08h-1.25v.08a.57.57,0,0,1,0,.14.13.13,0,0,1,0,.09h1.37a.31.31,0,0,1,0-.09.66.66,0,0,1,0-.15m-1,1.07h.81v-.41h-.81Zm2.15-.11v-.2s0-.06,0-.08a.11.11,0,0,0-.08,0h-.74v.42h.74s.07,0,.09,0a.15.15,0,0,0,0-.07"/><path class="cls-7" d="M117.65,59.19a2.76,2.76,0,0,1-2.31,2.71,2.45,2.45,0,0,1-.48,0h-6.69c1.54,0,3.29-1.23,3.29-2.75a2.76,2.76,0,0,0-2.78-2.75,2.76,2.76,0,0,0,2.78-2.75c0-1.52-1.76-2.75-3.29-2.75h4.93c.16,0,2.08,0,2.23,0a2.74,2.74,0,0,1,0,5.42,2.42,2.42,0,0,1-.47,0,2.49,2.49,0,0,1,.47,0,2.76,2.76,0,0,1,2.31,2.71"/><path class="cls-7" d="M106.72,53.64a1.15,1.15,0,0,1-1.17,1.15H98.77V52.5h6.78a1.15,1.15,0,0,1,1.17,1.15"/><path class="cls-7" d="M106.72,59.05a1.15,1.15,0,0,1-1.17,1.15H98.77V57.91h6.78a1.15,1.15,0,0,1,1.17,1.15"/><path class="cls-7" d="M94,51H87.46V62H94Z"/><path class="cls-7" d="M36.89,83.66A32.06,32.06,0,0,1,26.8,82l-.12,0c-.26-.08-.53-.18-.8-.28a31.33,31.33,0,0,1-19.8-22.5c-.17-.8-.32-1.61-.42-2.42a31,31,0,0,1-.26-4A29.88,29.88,0,0,1,6.68,44.1c1-3.4,4.84-9.46,5-9.72s.6-.86,1.59-2.23l1.85-2.56c1.49-2.07,3.3-4.58,5.2-7.2C25.85,14.76,32,6.28,32.26,5.92a1.43,1.43,0,0,1,1.15-.59H54.64a1.42,1.42,0,0,1,1.26.76,1.36,1.36,0,0,1-.1,1.45L44.72,22.88l1.87.6.47.16L48,24l1,.39.57.24c.51.22,1,.44,1.42.65l.59.3.47.25c.29.16.63.34,1,.54l.13.08A30.54,30.54,0,0,1,68.36,52.81c0,17-14.12,30.84-31.48,30.84m.93-44.07a13.13,13.13,0,0,0-5.49,1.19,12.81,12.81,0,0,0-7.48,10.36c0,.42-.06.82-.06,1.21a12.91,12.91,0,0,0,13,12.76A15.19,15.19,0,0,0,39.56,65a12.72,12.72,0,0,0,.29-25.25,12.62,12.62,0,0,0-2-.16"/><path class="cls-1" d="M54.59,6.76,44.7,20.48l-2.3,3.17,3.76,1.2.45.15c.34.12.64.22.91.33l.94.36.55.24c.5.22,1,.42,1.36.62l.55.28.46.24c.27.15.6.33.91.52l.13.07A29.14,29.14,0,0,1,66.94,52.82c0,16.22-13.47,29.42-30,29.42a30.43,30.43,0,0,1-9.62-1.56l-.14,0-.75-.26A29.9,29.9,0,0,1,7.5,58.91c-.17-.76-.3-1.53-.4-2.31a28.12,28.12,0,0,1-.25-3.78,28.76,28.76,0,0,1,1.21-8.31c.78-2.57,3.52-7.25,4.85-9.36.09-.14.65-.92,1.55-2.17l1.85-2.57,5.19-7.19L33.43,6.76ZM37.82,66.55a14.17,14.17,0,0,0,2.25-28.21,14.12,14.12,0,0,0-2.25-.17,14.75,14.75,0,0,0-6.1,1.32A14.29,14.29,0,0,0,23.41,51a12.6,12.6,0,0,0-.07,1.35A14.35,14.35,0,0,0,37.82,66.55M54.65,3.91H33.42a2.86,2.86,0,0,0-2.33,1.18c-1.3,1.79-6.89,9.49-11.94,16.47-1.89,2.62-3.71,5.13-5.19,7.2l-1.85,2.56c-1.23,1.69-1.54,2.14-1.65,2.3S6.38,40.1,5.3,43.69A31.57,31.57,0,0,0,4,52.81,32.3,32.3,0,0,0,4.23,57c.11.84.26,1.69.44,2.53A32.79,32.79,0,0,0,25.39,83c.28.11.57.2.84.29l.12,0A33.16,33.16,0,0,0,36.9,85.08c18.17,0,32.94-14.48,32.94-32.28A32,32,0,0,0,53.92,25.2l-.13-.08c-.33-.2-.67-.38-1-.57l-.48-.25L51.67,24c-.49-.24-1-.48-1.5-.7l-.58-.24c-.34-.15-.69-.28-1-.41l-1-.36-.5-.16L57,8.36a2.79,2.79,0,0,0,.21-2.93A2.88,2.88,0,0,0,54.66,3.9M37.83,63.68A11.48,11.48,0,0,1,26.24,52.34c0-.36,0-.72.05-1.07a11.42,11.42,0,0,1,6.65-9.2A11.72,11.72,0,0,1,37.83,41a12.26,12.26,0,0,1,1.81.14,11.3,11.3,0,0,1-.26,22.42A10.47,10.47,0,0,1,37.83,63.68Z"/><path class="cls-7" d="M80.89,81v-1.9a30.16,30.16,0,0,1-17.5-5.57c-.4.49-.83,1-1.26,1.45a32,32,0,0,0,18.76,6"/><path class="cls-8" d="M111.76,41.2l-2.58-1.74A30.19,30.19,0,0,0,59.79,28.35c-.48-.43-1-.84-1.47-1.25a32.13,32.13,0,0,1,53.44,14.1Z"/><path class="cls-7" d="M69.93,45.35c-.22-.94-.48-1.87-.78-2.78a29.94,29.94,0,0,0-1.87-4.49c-.3-.61-.63-1.21-1-1.79a31.92,31.92,0,0,0-2.39-3.51c-.39-.51-.8-1-1.22-1.48a33.86,33.86,0,0,0-2.92-2.95c-.48-.43-1-.84-1.47-1.25s-1-.77-1.5-1.13c-.32-.23-.64-.45-1-.66l-.75-.49-.69-.42-.13-.08-.18-.1-.86-.49-.49-.26-.65-.33c-.47-.23-1-.47-1.55-.71L50,22.18l-1.07-.42-.3-.11L57.76,8.93A3.71,3.71,0,0,0,58.05,5a3.83,3.83,0,0,0-3.41-2H33.41A3.85,3.85,0,0,0,30.3,4.54C30,4.9,23.88,13.39,18.36,21c-1.89,2.62-3.71,5.13-5.19,7.2l-1.85,2.56C10,32.54,9.76,32.94,9.64,33.13c-.42.67-4.18,6.66-5.27,10.3a32.24,32.24,0,0,0-1.1,13.68c.11.86.26,1.74.45,2.61A33.76,33.76,0,0,0,25,84l.87.3.12,0a34.38,34.38,0,0,0,31.36-5c.34-.26.69-.52,1-.79L59,78c.33-.28.66-.56,1-.85.76-.69,1.47-1.41,2.17-2.16.42-.47.85-1,1.25-1.45a35,35,0,0,0,2.42-3.37q.51-.81,1-1.65a33.56,33.56,0,0,0,1.8-3.84c.24-.63.47-1.27.67-1.92A31,31,0,0,0,70.37,58c.16-1,.26-1.9.33-2.87,0-.76.09-1.54.09-2.32a32.54,32.54,0,0,0-.86-7.47M68.59,56.93c0,.18,0,.36-.08.54s-.05.3-.08.45-.05.31-.07.46a2.07,2.07,0,0,0,0,.22l-.1.51a1.3,1.3,0,0,0,0,.13c0,.16-.07.33-.11.5L68,60c0,.16-.08.32-.13.48a.66.66,0,0,1,0,.15c0,.18-.09.36-.14.54s0,.06,0,.08a.09.09,0,0,1,0,0c0,.12-.07.24-.11.36a2.45,2.45,0,0,1-.08.29,3.38,3.38,0,0,1-.11.34c-.11.35-.23.69-.35,1s-.19.49-.29.74a4.87,4.87,0,0,1-.21.53c-.07.17-.14.35-.22.53l-.3.67-.26.54-.25.5c-.08.16-.17.32-.24.47s-.16.28-.23.42c-.24.43-.48.86-.74,1.27-.06.1-.13.2-.19.31l-.2.3c0,.09-.11.17-.17.26-.24.36-.48.71-.74,1.06l-.28.38a.7.7,0,0,0-.06.09l-.31.39c-.15.2-.3.39-.46.58-.4.5-.82,1-1.26,1.45a28.83,28.83,0,0,1-2.16,2.12c-.3.28-.61.54-.93.81l-.63.51c-.32.26-.64.5-1,.74a32.2,32.2,0,0,1-19,6.16A32.71,32.71,0,0,1,26.66,82.5l-.12,0c-.27-.08-.54-.18-.81-.28A31.83,31.83,0,0,1,5.62,59.32c-.17-.81-.32-1.64-.43-2.46A30.44,30.44,0,0,1,6.23,44c1-3.46,4.9-9.58,5.06-9.84s.49-.69,1.61-2.25l1.85-2.57,5.19-7.19C25.46,14.5,31.62,6,31.89,5.65a1.89,1.89,0,0,1,1.53-.78H54.66a1.88,1.88,0,0,1,1.55,3L45.51,22.65l1.25.4.47.16,1,.34,1,.39.58.24,1.45.68s.44.21.59.3l.48.25,1,.55.13.08.31.18c.58.36,1.16.73,1.71,1.12s1.06.76,1.57,1.16,1,.81,1.47,1.23c.78.7,1.52,1.43,2.23,2.19.11.13.22.25.34.37l.35.41c.22.24.42.5.63.75l.29.36c.1.13.2.27.31.4l0,0,.3.41c.11.15.22.29.32.45s.17.24.26.36l.36.54.3.46c.1.16.19.32.29.47l.27.47c.1.16.18.32.27.48.36.63.69,1.27,1,1.93l0,0,.27.6.28.67c.07.16.13.32.2.49a.32.32,0,0,1,0,.09,2,2,0,0,1,.09.22l0,.07c0,.16.11.32.17.48s.16.44.23.66l0,.06.21.66a.14.14,0,0,0,0,.06l.18.63h0l.18.7c0,.15.08.3.11.46s.06.25.09.36q.27,1.22.45,2.46c0,.11,0,.23,0,.35l0,.26a2.33,2.33,0,0,1,0,.37.43.43,0,0,0,0,.11l0,.31c0,.33,0,.65.07,1,0,.15,0,.31,0,.46s0,.32,0,.49,0,.31,0,.48v.49c0,.91,0,1.82-.12,2.72,0,.46-.09.91-.15,1.36"/><path class="cls-7" d="M49,46.87a12.43,12.43,0,0,0-2.35-3.18,11.92,11.92,0,0,0-1.74-1.43,12.63,12.63,0,0,0-5.16-2,14.35,14.35,0,0,0-2-.15,12.62,12.62,0,0,0-5.29,1.15,12.36,12.36,0,0,0-7.2,10c0,.41-.06.78-.06,1.16A12.43,12.43,0,0,0,37.82,64.65a14,14,0,0,0,1.67-.11A12.71,12.71,0,0,0,45.56,62a13.35,13.35,0,0,0,1.65-1.53,12.5,12.5,0,0,0,2.49-4.16,12,12,0,0,0,.68-4A11.79,11.79,0,0,0,49,46.88M46.63,58.16A10.38,10.38,0,0,1,45,60a10.66,10.66,0,0,1-5.74,2.63,10,10,0,0,1-1.42.09A10.51,10.51,0,0,1,27.2,52.36a8.36,8.36,0,0,1,.05-1A10.44,10.44,0,0,1,33.34,43a10.63,10.63,0,0,1,4.48-1,11.58,11.58,0,0,1,1.65.13,10.65,10.65,0,0,1,5,2.2,11.27,11.27,0,0,1,1.76,1.76,10.12,10.12,0,0,1,.39,12.1Z"/><path class="cls-7" d="M80.89,79.09h40.75a1.69,1.69,0,0,0,1.56-1.62V60.84h2V77.38A3.72,3.72,0,0,1,121.77,81H80.89"/><path class="cls-7" d="M124.13,51.2l-11.9-8-2.37-1.59-6.14-4.14-.09-.06a1.89,1.89,0,0,0-1.07-.32,2,2,0,0,0-1.08.32L98,39.73l-1.6,1.07L93,43.14l-1.61,1.08L81,51.2a2.49,2.49,0,0,0-1.11,2.06v9.61c.34,0,.67,0,1,0h1V53l10.21-6.88L93.77,45l3.55-2.38,1.62-1.1,3.5-2.36.11-.07,2.71,1.82,5.24,3.53,2.16,1.46L123.19,53v2.66h2v-2.4a2.47,2.47,0,0,0-1.11-2.06"/></svg>