<?xml version="1.0" encoding="utf-8"?>
<!-- Generator: Adobe Illustrator 26.5.0, SVG Export Plug-In . SVG Version: 6.00 Build 0)  -->
<svg version="1.1" id="Layer_1" xmlns="http://www.w3.org/2000/svg" xmlns:xlink="http://www.w3.org/1999/xlink" x="0px" y="0px"
	 viewBox="0 0 455.3 136.8" style="enable-background:new 0 0 455.3 136.8;" xml:space="preserve">
<style type="text/css">
	.st0{clip-path:url(#SVGID_00000154406478651827369190000015966693031594329243_);}
	.st1{fill:#F2F2F2;}
	.st2{clip-path:url(#SVGID_00000096031118386951542170000012599170499659243905_);}
	.st3{clip-path:url(#SVGID_00000118372173700912027300000008184762106152999353_);}
	.st4{clip-path:url(#SVGID_00000037653409771574470140000007734905324762596270_);}
	.st5{fill:#75A240;}
	.st6{fill:#E21E26;}
	.st7{fill:#F8EC1F;}
	.st8{fill:#20438E;}
	.st9{fill:#FFFFFF;}
	.st10{fill:#211614;}
</style>
<g>
	<g>
		<g>
			<g>
				<defs>
					<rect id="SVGID_1_" x="72.4" y="-2" width="194.6" height="136.8"/>
				</defs>
				<clipPath id="SVGID_00000181778968259477584130000006982667164998878871_">
					<use xlink:href="#SVGID_1_"  style="overflow:visible;"/>
				</clipPath>
				<g style="clip-path:url(#SVGID_00000181778968259477584130000006982667164998878871_);">
					<path class="st1" d="M267,79.9c0-2.8-1.4-5.4-3.7-6.9l-16.5-11.3l-0.4-1.5c-6.2-23.1-27.3-39.2-51.2-39.2
						c-12.8,0-24.9,4.5-34.6,12.8c-0.3-0.2-0.6-0.4-0.9-0.6c-0.4-0.3-0.8-0.5-1.2-0.8c-0.4-0.2-0.8-0.5-1.2-0.7l-0.2-0.1
						c-0.1-0.1-0.2-0.1-0.4-0.2c-0.5-0.3-1-0.5-1.4-0.8l-0.8-0.5c-0.3-0.2-1.1-0.5-1.1-0.5c-0.1-0.1-0.3-0.1-0.4-0.2l10.7-15
						c2.3-3.2,2.6-7.3,0.8-10.8c-1.8-3.5-5.3-5.6-9.2-5.6h-32.2c-3.3,0-6.5,1.6-8.4,4.3c-0.1,0.1-0.6,0.8-1.4,2
						c-3,4.2-10.1,14.2-16.7,23.3c-2.9,4-5.6,7.9-7.9,11.1l-2.8,3.9c-2.1,3-2.5,3.4-2.7,3.8l0,0.1c-1.6,2.5-6.8,11.1-8.5,16.9
						c-1.5,5.1-2.3,10.4-2.3,15.7c0,2.4,0.2,4.8,0.5,7.2c0.2,1.4,0.4,2.9,0.7,4.4c3.9,18.4,17.4,34,35.2,40.6c0.5,0.2,1,0.3,1.4,0.5
						l0.2,0.1c5.8,1.9,11.8,2.9,17.9,2.9c12.3,0,24-3.9,33.9-11.3c0.5-0.4,1.1-0.8,1.7-1.3c0.3-0.3,0.7-0.5,1-0.8
						c0.5-0.4,1.1-0.9,1.6-1.4c0.3-0.3,0.5-0.5,0.8-0.8c8.4,5.2,17.9,7.9,27.9,7.9h62.1l0.3,0c5.3-0.4,9.4-4.9,9.4-10.1V88.1h0V79.9
						z M237.3,84.6C237.3,84.6,237.3,84.6,237.3,84.6C237.3,84.6,237.3,84.6,237.3,84.6L237.3,84.6z"/>
				</g>
			</g>
		</g>
		<g>
			<g>
				<defs>
					<rect id="SVGID_00000101094865068506017810000014225159450201026738_" x="72.4" y="-2" width="194.6" height="136.8"/>
				</defs>
				<clipPath id="SVGID_00000154416252283378035650000013816767302599250837_">
					<use xlink:href="#SVGID_00000101094865068506017810000014225159450201026738_"  style="overflow:visible;"/>
				</clipPath>
				<g style="clip-path:url(#SVGID_00000154416252283378035650000013816767302599250837_);">
					<path class="st1" d="M267,79.9c0-2.8-1.4-5.4-3.7-6.9l-16.5-11.3l-0.4-1.5c-6.2-23.1-27.3-39.2-51.2-39.2
						c-12.8,0-24.9,4.5-34.6,12.8c-0.3-0.2-0.6-0.4-0.9-0.6c-0.4-0.3-0.8-0.5-1.2-0.8c-0.4-0.2-0.8-0.5-1.2-0.7l-0.2-0.1
						c-0.1-0.1-0.2-0.1-0.4-0.2c-0.5-0.3-1-0.5-1.4-0.8l-0.8-0.5c-0.3-0.2-1.1-0.5-1.1-0.5c-0.1-0.1-0.3-0.1-0.4-0.2l10.7-15
						c2.3-3.2,2.6-7.3,0.8-10.8c-1.8-3.5-5.3-5.6-9.2-5.6h-32.2c-3.3,0-6.5,1.6-8.4,4.3c-0.1,0.1-0.6,0.8-1.4,2
						c-3,4.2-10.1,14.2-16.7,23.3c-2.9,4-5.6,7.9-7.9,11.1l-2.8,3.9c-2.1,3-2.5,3.4-2.7,3.8l0,0.1c-1.6,2.5-6.8,11.1-8.5,16.9
						c-1.5,5.1-2.3,10.4-2.3,15.7c0,2.4,0.2,4.8,0.5,7.2c0.2,1.4,0.4,2.9,0.7,4.4c3.9,18.4,17.4,34,35.2,40.6c0.5,0.2,1,0.3,1.4,0.5
						l0.2,0.1c5.8,1.9,11.8,2.9,17.9,2.9c12.3,0,24-3.9,33.9-11.3c0.5-0.4,1.1-0.8,1.7-1.3c0.3-0.3,0.7-0.5,1-0.8
						c0.5-0.4,1.1-0.9,1.6-1.4c0.3-0.3,0.5-0.5,0.8-0.8c8.4,5.2,17.9,7.9,27.9,7.9h62.1l0.3,0c5.3-0.4,9.4-4.9,9.4-10.1V88.1h0V79.9
						z M237.3,84.6C237.3,84.6,237.3,84.6,237.3,84.6C237.3,84.6,237.3,84.6,237.3,84.6L237.3,84.6z"/>
				</g>
			</g>
		</g>
		<g>
			<g>
				<defs>
					<rect id="SVGID_00000036218767348666935680000005214919236654006700_" x="72.4" y="-2" width="194.6" height="136.8"/>
				</defs>
				<clipPath id="SVGID_00000012435344043491780130000006978618784559355300_">
					<use xlink:href="#SVGID_00000036218767348666935680000005214919236654006700_"  style="overflow:visible;"/>
				</clipPath>
				<g style="clip-path:url(#SVGID_00000012435344043491780130000006978618784559355300_);">
					<path class="st1" d="M267,79.9c0-2.8-1.4-5.4-3.7-6.9l-16.5-11.3l-0.4-1.5c-6.2-23.1-27.3-39.2-51.2-39.2
						c-12.8,0-24.9,4.5-34.6,12.8c-0.3-0.2-0.6-0.4-0.9-0.6c-0.4-0.3-0.8-0.5-1.2-0.8c-0.4-0.2-0.8-0.5-1.2-0.7l-0.2-0.1
						c-0.1-0.1-0.2-0.1-0.4-0.2c-0.5-0.3-1-0.5-1.4-0.8l-0.8-0.5c-0.3-0.2-1.1-0.5-1.1-0.5c-0.1-0.1-0.3-0.1-0.4-0.2l10.7-15
						c2.3-3.2,2.6-7.3,0.8-10.8c-1.8-3.5-5.3-5.6-9.2-5.6h-32.2c-3.3,0-6.5,1.6-8.4,4.3c-0.1,0.1-0.6,0.8-1.4,2
						c-3,4.2-10.1,14.2-16.7,23.3c-2.9,4-5.6,7.9-7.9,11.1l-2.8,3.9c-2.1,3-2.5,3.4-2.7,3.8l0,0.1c-1.6,2.5-6.8,11.1-8.5,16.9
						c-1.5,5.1-2.3,10.4-2.3,15.7c0,2.4,0.2,4.8,0.5,7.2c0.2,1.4,0.4,2.9,0.7,4.4c3.9,18.4,17.4,34,35.2,40.6c0.5,0.2,1,0.3,1.4,0.5
						l0.2,0.1c5.8,1.9,11.8,2.9,17.9,2.9c12.3,0,24-3.9,33.9-11.3c0.5-0.4,1.1-0.8,1.7-1.3c0.3-0.3,0.7-0.5,1-0.8
						c0.5-0.4,1.1-0.9,1.6-1.4c0.3-0.3,0.5-0.5,0.8-0.8c8.4,5.2,17.9,7.9,27.9,7.9h62.1l0.3,0c5.3-0.4,9.4-4.9,9.4-10.1V88.1h0V79.9
						z M237.3,84.6C237.3,84.6,237.3,84.6,237.3,84.6C237.3,84.6,237.3,84.6,237.3,84.6L237.3,84.6z"/>
				</g>
			</g>
		</g>
		<g>
			<g>
				<defs>
					<rect id="SVGID_00000089540682974033202390000012063759746798784425_" x="72.4" y="-2" width="194.6" height="136.8"/>
				</defs>
				<clipPath id="SVGID_00000176018154107716880360000007549552772889841306_">
					<use xlink:href="#SVGID_00000089540682974033202390000012063759746798784425_"  style="overflow:visible;"/>
				</clipPath>
				<g style="clip-path:url(#SVGID_00000176018154107716880360000007549552772889841306_);">
					<path class="st1" d="M267,79.9c0-2.8-1.4-5.4-3.7-6.9l-16.5-11.3l-0.4-1.5c-6.2-23.1-27.3-39.2-51.2-39.2
						c-12.8,0-24.9,4.5-34.6,12.8c-0.3-0.2-0.6-0.4-0.9-0.6c-0.4-0.3-0.8-0.5-1.2-0.8c-0.4-0.2-0.8-0.5-1.2-0.7l-0.2-0.1
						c-0.1-0.1-0.2-0.1-0.4-0.2c-0.5-0.3-1-0.5-1.4-0.8l-0.8-0.5c-0.3-0.2-1.1-0.5-1.1-0.5c-0.1-0.1-0.3-0.1-0.4-0.2l10.7-15
						c2.3-3.2,2.6-7.3,0.8-10.8c-1.8-3.5-5.3-5.6-9.2-5.6h-32.2c-3.3,0-6.5,1.6-8.4,4.3c-0.1,0.1-0.6,0.8-1.4,2
						c-3,4.2-10.1,14.2-16.7,23.3c-2.9,4-5.6,7.9-7.9,11.1l-2.8,3.9c-2.1,3-2.5,3.4-2.7,3.8l0,0.1c-1.6,2.5-6.8,11.1-8.5,16.9
						c-1.5,5.1-2.3,10.4-2.3,15.7c0,2.4,0.2,4.8,0.5,7.2c0.2,1.4,0.4,2.9,0.7,4.4c3.9,18.4,17.4,34,35.2,40.6c0.5,0.2,1,0.3,1.4,0.5
						l0.2,0.1c5.8,1.9,11.8,2.9,17.9,2.9c12.3,0,24-3.9,33.9-11.3c0.5-0.4,1.1-0.8,1.7-1.3c0.3-0.3,0.7-0.5,1-0.8
						c0.5-0.4,1.1-0.9,1.6-1.4c0.3-0.3,0.5-0.5,0.8-0.8c8.4,5.2,17.9,7.9,27.9,7.9h62.1l0.3,0c5.3-0.4,9.4-4.9,9.4-10.1V88.1h0V79.9
						z M237.3,84.6C237.3,84.6,237.3,84.6,237.3,84.6C237.3,84.6,237.3,84.6,237.3,84.6L237.3,84.6z"/>
				</g>
			</g>
		</g>
		<g>
			<path class="st5" d="M195.2,34.7c-10.8,0-20.5,4.3-27.6,11.4c-0.7,0.7-1.4,1.4-2,2.1c-6,6.9-9.6,15.9-9.6,25.7
				c0,12,5.5,22.8,14,30c0.8,0.6,1.5,1.2,2.3,1.8c6.5,4.7,14.4,7.4,22.9,7.4v-2.9c-8,0-15.4-2.6-21.4-7c-0.8-0.6-1.6-1.2-2.3-1.9
				c-7.7-6.7-12.6-16.5-12.6-27.5c0-8.9,3.2-17.1,8.6-23.4c0.6-0.8,1.3-1.5,2-2.2c6.6-6.6,15.7-10.7,25.7-10.7
				c12.5,0,23.6,6.4,30.1,16c0.9-0.6,1.9-0.9,2.9-0.8C221.2,42,209,34.7,195.2,34.7"/>
		</g>
		<g>
			<path class="st6" d="M195.2,44c-8.8,0-16.6,3.8-22.1,9.8c-0.7,0.8-1.4,1.6-2,2.4c-3.7,5-5.9,11.1-5.9,17.8
				c0,8.3,3.4,15.9,8.9,21.3c0.7,0.7,1.5,1.4,2.4,2.1c5.1,4.1,11.6,6.6,18.7,6.6V101c-6.7,0-12.9-2.5-17.7-6.6
				c-0.8-0.7-1.6-1.5-2.4-2.3c-4.4-4.8-7-11.2-7-18.1c0-5.5,1.6-10.5,4.4-14.8c0.6-0.9,1.3-1.8,2-2.6c5-5.9,12.4-9.6,20.7-9.6
				c9.3,0,17.6,4.8,22.5,12l2.4-1.7C214.6,49.3,205.5,44,195.2,44"/>
		</g>
		<g>
			<path class="st7" d="M195.2,53.3c-7.6,0-14.2,4.1-17.8,10.2c-0.8,1.3-1.4,2.7-1.9,4.1v0c-0.7,2-1,4.2-1,6.4
				c0,3.4,0.8,6.6,2.3,9.4v0c0.7,1.4,1.5,2.6,2.5,3.8c3.1,3.7,7.4,6.3,12.3,7.2v-3c-5.1-1.1-9.3-4.3-11.8-8.6
				c-1.5-2.6-2.3-5.6-2.3-8.8c0-2.2,0.4-4.3,1.1-6.3c2.5-6.7,9-11.5,16.6-11.5c6.2,0,11.6,3.2,14.8,7.9l2.4-1.7
				C208.7,56.9,202.3,53.3,195.2,53.3"/>
		</g>
		<g>
			<path class="st8" d="M204.5,101c0-0.1,0-0.3,0.1-0.3c0.1-0.1,0.2-0.1,0.4-0.1h7c0.2,0,0.4,0,0.5,0l0.1,0v0.5c0,0.1,0,0.3-0.1,0.3
				c-0.1,0.1-0.2,0.1-0.4,0.1h-7c-0.2,0-0.4,0-0.5,0l-0.1,0V101z"/>
		</g>
		<g>
			<path class="st8" d="M218.9,102.8v1.9c0,0.1,0,0.2,0,0.3c0,0.1,0,0.1,0,0.1c0,0,0,0,0,0.1c0,0,0,0-0.1,0h-0.6c0,0-0.1,0-0.1,0
				c0,0,0,0,0-0.1c0,0,0,0,0,0c0-0.1,0-0.2,0-0.4v-1.9h-2.1c-0.4,0-0.6-0.1-0.8-0.3c-0.1-0.2-0.2-0.4-0.2-0.7c0,0,0-0.1,0-0.1v-3.4
				c0,0,0-0.1,0-0.1c0-0.3,0.1-0.5,0.2-0.7c0.2-0.2,0.4-0.2,0.7-0.2c0,0,0.1,0,0.1,0h5.1c0.4,0,0.7,0.1,0.8,0.3
				c0.1,0.2,0.2,0.4,0.2,0.7c0,0,0,0.1,0,0.1v3.4c0,0,0,0.1,0,0.1c0,0.3-0.1,0.5-0.2,0.7c-0.2,0.2-0.4,0.2-0.7,0.2c0,0-0.1,0-0.1,0
				H218.9z M218,99.6v-1.4h-1.8c-0.1,0-0.2,0-0.3,0.1c0,0-0.1,0.1-0.1,0.2v0v0v1H218z M218,102v-1.5h-2.2v1.1c0,0.1,0,0.2,0.1,0.3
				c0.1,0.1,0.1,0.1,0.3,0.1H218z M221.2,98.6c0-0.1,0-0.2-0.1-0.3c-0.1-0.1-0.1-0.1-0.3-0.1h-1.9v1.4h2.3V98.6z M218.9,102h1.9
				c0.1,0,0.2,0,0.3-0.1c0.1-0.1,0.1-0.1,0.1-0.3v-1.1h-2.3V102z"/>
		</g>
		<g>
			<path class="st8" d="M230.1,98.3C230.1,98.3,230.1,98.3,230.1,98.3l-4.5,0c-0.1,0-0.2,0-0.2,0.1l-0.1,0.1v-0.6
				c0-0.2,0-0.3,0.1-0.4c0.1-0.1,0.1-0.1,0.3-0.1h5.3c0.5,0,0.7,0.2,0.7,0.5c0,0,0,0.1,0,0.1c0,0.1-0.2,0.3-0.4,0.5
				c-0.3,0.2-0.7,0.5-1.2,0.8l-0.4,0.2c-0.4,0.2-0.6,0.3-0.7,0.4c-0.1,0.1-0.1,0.2-0.1,0.4v0.4h3.1c0.2,0,0.3,0,0.4-0.1l0.1-0.1v0.6
				c0,0,0,0,0,0.1c0,0,0,0.1,0,0.1c0,0,0,0,0,0c0,0,0,0,0,0c0,0,0,0,0,0c-0.1,0.1-0.2,0.2-0.5,0.2h-3.1v2.4c0,0.4-0.1,0.7-0.3,0.9
				c-0.2,0.2-0.5,0.3-0.8,0.3h-0.7c-0.2,0-0.3,0-0.4-0.1c-0.1-0.1-0.1-0.2-0.1-0.4c0-0.2,0.1-0.3,0.2-0.4c0.1,0,0.2,0,0.3,0h0.5
				c0.1,0,0.2,0,0.3-0.1c0.1-0.1,0.1-0.1,0.1-0.2v0v-2.2h-3.1c-0.1,0-0.2,0-0.2,0.1l-0.1,0.1v-0.6c0-0.2,0-0.3,0.1-0.4
				c0.1-0.1,0.1-0.1,0.2-0.1h3.1v-0.5c0-0.3,0.1-0.6,0.2-0.7c0.1-0.1,0.4-0.3,1.1-0.7C229.7,98.5,230,98.4,230.1,98.3L230.1,98.3z"
				/>
		</g>
		<g>
			<path class="st8" d="M234.4,104.3v-5c0-0.3,0.1-0.4,0.2-0.6c0.1-0.1,0.3-0.2,0.5-0.2h0.4c0-0.3,0.1-0.6,0.2-1
				c0-0.1,0.1-0.2,0.1-0.3c0.1-0.1,0.2-0.1,0.3-0.1c0.2,0,0.3,0,0.4,0.1c0.1,0.1,0.1,0.2,0.1,0.3c0,0.1,0,0.2,0,0.3
				c0,0.3-0.1,0.5-0.2,0.7h0.6c0.2,0,0.4,0.1,0.6,0.2c0.1,0.1,0.2,0.3,0.2,0.6l0,5c0,0.2-0.1,0.4-0.2,0.6c-0.1,0.1-0.3,0.2-0.6,0.2
				h-1.8c-0.2,0-0.4-0.1-0.6-0.2C234.5,104.7,234.4,104.5,234.4,104.3 M236.8,99.5c0-0.1,0-0.1,0-0.2c0,0-0.1,0-0.2,0h-1.1
				c-0.1,0-0.2,0-0.2,0.1c0,0,0,0.1,0,0.1v1.7h1.5V99.5z M235.3,102v2c0,0.1,0,0.1,0,0.2c0,0,0.1,0,0.2,0h1.1c0.1,0,0.1,0,0.2,0
				c0,0,0-0.1,0-0.2v-2H235.3z M239.4,104.4c0.1-0.1,0.2-0.1,0.4-0.1c0.4,0,0.7,0,0.9,0c0.1,0,0.2-0.1,0.2-0.1c0,0,0.1-0.1,0.1-0.2
				c0-0.1,0.1-0.3,0.1-0.6c0-0.3,0.1-0.7,0.1-1.1c0-0.9,0.1-1.8,0.1-2.7c0-0.1,0-0.1-0.1-0.2c0,0-0.1-0.1-0.2-0.1h-1.9
				c-0.1,0.3-0.3,0.7-0.5,1c-0.1,0.2-0.2,0.2-0.4,0.2c-0.1,0-0.2,0-0.3-0.1c-0.1-0.1-0.2-0.2-0.2-0.3c0-0.1,0-0.2,0.1-0.3
				c0.2-0.5,0.4-0.8,0.5-1.2c0.1-0.4,0.3-0.8,0.4-1.3c0-0.1,0.1-0.2,0.2-0.3s0.2-0.1,0.3-0.1c0,0,0.1,0,0.1,0c0.1,0,0.2,0.1,0.2,0.1
				c0.1,0.1,0.1,0.2,0.1,0.3c0,0.1,0,0.1,0,0.2c0,0.2-0.1,0.3-0.1,0.5c0,0.1-0.1,0.3-0.1,0.3h2c0.3,0,0.5,0.1,0.7,0.2
				c0.1,0.1,0.2,0.3,0.2,0.5c0,1.1,0,2.2-0.1,3.2c-0.1,1-0.2,1.7-0.3,2.1c-0.1,0.3-0.3,0.5-0.5,0.6c-0.2,0.1-0.6,0.1-1,0.1
				c-0.2,0-0.3,0-0.4,0c-0.2,0-0.3-0.1-0.4-0.1c-0.1-0.1-0.1-0.2-0.1-0.3S239.4,104.5,239.4,104.4 M238.5,101.1
				c0-0.2,0.1-0.3,0.2-0.3c0.1,0,0.1-0.1,0.2-0.1c0.1,0,0.2,0.1,0.4,0.2c0.1,0.1,0.3,0.3,0.4,0.5c0.2,0.3,0.3,0.5,0.4,0.7
				c0.1,0.2,0.1,0.3,0.1,0.4c0,0.1,0,0.2-0.1,0.3c-0.1,0.1-0.2,0.1-0.3,0.1c-0.1,0-0.2,0-0.3-0.1c-0.1-0.1-0.1-0.2-0.2-0.3
				c-0.1-0.2-0.3-0.5-0.5-0.8l-0.1-0.2c0,0-0.1-0.1-0.1-0.2C238.6,101.2,238.5,101.1,238.5,101.1"/>
		</g>
		<g>
			<path class="st8" d="M245.6,102.9c0,0.3-0.2,0.8-0.5,1.5c0,0.1-0.1,0.1-0.1,0.2c0,0-0.1,0.1-0.1,0.1c-0.1,0.1-0.2,0.1-0.3,0.1
				c-0.2,0-0.3-0.1-0.4-0.2c0-0.1,0-0.1,0-0.2c0-0.1,0-0.1,0.1-0.2c0-0.1,0.1-0.1,0.1-0.1c0.2-0.4,0.4-0.8,0.5-1.2
				c0-0.1,0.1-0.2,0.1-0.2c0.1-0.1,0.2-0.1,0.3-0.1c0.1,0,0.3,0,0.3,0.1C245.5,102.7,245.6,102.7,245.6,102.9 M247.6,102.5
				c0-0.1,0-0.2,0.1-0.3c0,0,0.1-0.1,0.1-0.1h-2c-0.4,0-0.6-0.1-0.8-0.2c-0.1-0.1-0.2-0.3-0.2-0.6c0,0,0-0.1,0-0.1v-2.9
				c0,0,0-0.1,0-0.1c0,0,0-0.1,0-0.2c0-0.1,0-0.1,0.1-0.2c0-0.1,0.1-0.1,0.1-0.2c0.1-0.1,0.4-0.2,0.7-0.2h0.1h4.5
				c0.5,0,0.9,0.2,1,0.5c0,0.1,0,0.2,0,0.3c0,0,0,0.1,0,0.1v2.9c0,0.3-0.1,0.6-0.2,0.7c-0.1,0.1-0.4,0.2-0.6,0.2c0,0-0.1,0-0.1,0
				h-2.2c0.1,0,0.1,0.1,0.2,0.2c0.2,0.2,0.4,0.4,0.5,0.5c0.1,0.1,0.2,0.2,0.2,0.3c0,0.1,0,0.2-0.1,0.3c-0.1,0.1-0.2,0.1-0.3,0.1
				c-0.1,0-0.2-0.1-0.4-0.2c-0.1-0.1-0.2-0.2-0.3-0.3c-0.1-0.2-0.2-0.3-0.2-0.3C247.7,102.7,247.6,102.6,247.6,102.5 M248.4,99.5
				C248.4,99.6,248.4,99.6,248.4,99.5c0.1,0.1,0.2,0.1,0.4,0.2l1.1,0.5l0.4,0.2c0.1,0,0.1,0.1,0.2,0.2c0,0.1,0.1,0.1,0.1,0.2
				c0,0.1,0,0.2-0.1,0.3c-0.1,0.1-0.1,0.1-0.2,0.1c-0.1,0-0.2,0-0.3-0.1c-0.1,0-0.3-0.1-0.4-0.3c-0.2-0.1-0.6-0.3-1.1-0.6
				c0,0-0.1-0.1-0.1-0.1c-0.2,0.3-0.5,0.5-0.8,0.7c-0.4,0.3-0.8,0.4-1.1,0.4c-0.2,0-0.3-0.1-0.4-0.2c0-0.1,0-0.1,0-0.2
				c0-0.2,0.1-0.3,0.4-0.4h0c0.3-0.1,0.5-0.2,0.6-0.2c0.2-0.1,0.3-0.2,0.4-0.3c0.1-0.1,0.2-0.3,0.3-0.5h-1.2c-0.1,0-0.2,0-0.3,0.1
				l-0.1,0.1v-0.6c0-0.1,0-0.2,0.1-0.3c0.1-0.1,0.2-0.1,0.3-0.1h1.3c0-0.1,0-0.2,0-0.4c0-0.1,0-0.2,0.1-0.3c0,0,0,0,0,0h-1.8
				c-0.1,0-0.2,0-0.3,0.1c0,0,0,0.1,0,0.2v2.6c0,0.1,0,0.2,0.1,0.2c0,0,0.1,0.1,0.2,0.1h4.2c0.1,0,0.2,0,0.2-0.1
				c0,0,0.1-0.1,0.1-0.2v-2.6c0-0.1,0-0.2-0.1-0.2c0,0-0.1-0.1-0.2-0.1h-1.9c0.1,0,0.1,0.1,0.1,0.2c0,0,0,0.1,0,0.1c0,0,0,0.1,0,0.4
				h1.5c0.1,0,0.2,0,0.3-0.1l0.1-0.1v0.6c0,0.1,0,0.2-0.1,0.3c-0.1,0.1-0.2,0.1-0.3,0.1H248.4z M250.4,103.6c0,0.3,0,0.5-0.1,0.7
				c-0.1,0.2-0.1,0.3-0.2,0.4c-0.1,0.1-0.3,0.2-0.6,0.2c-0.3,0.1-0.8,0.1-1.4,0.1c-0.6,0-1,0-1.5-0.1c-0.2,0-0.4-0.1-0.5-0.2
				c-0.1-0.1-0.2-0.3-0.2-0.5v-1.4c0-0.2,0-0.4,0-0.4c0,0,0,0,0-0.1c0,0,0,0,0.1,0h0.6c0,0,0.1,0,0.1,0c0,0,0,0,0,0.1l0,0.1
				c0,0.1,0,0.2,0,0.3v1.2c0,0.1,0,0.1,0.1,0.2c0.1,0,0.2,0.1,0.4,0.1h0.8c0.4,0,0.7,0,0.8,0c0.2,0,0.3,0,0.4-0.1
				c0,0,0.1-0.1,0.1-0.3c0-0.1,0-0.1,0-0.2v0c0-0.2,0.1-0.3,0.2-0.4c0.1-0.1,0.2-0.1,0.3-0.1c0.1,0,0.3,0,0.3,0.1
				C250.4,103.3,250.4,103.5,250.4,103.6 M248.7,99.8L248.7,99.8L248.7,99.8z M252,103.8c0.1,0.2,0.2,0.3,0.2,0.4
				c0,0.1,0,0.3-0.1,0.3c-0.1,0.1-0.2,0.1-0.3,0.1c-0.2,0-0.3-0.1-0.5-0.3c-0.3-0.5-0.5-0.9-0.7-1.1c-0.1-0.1-0.1-0.2-0.1-0.3
				c0-0.1,0-0.2,0.1-0.3c0.1-0.1,0.2-0.1,0.3-0.1c0.2,0,0.3,0.1,0.4,0.2l0.6,0.8L252,103.8z"/>
		</g>
		<g>
			<path class="st8" d="M209.1,111.8c-0.1,0-0.2,0-0.3,0.1l-0.1,0.1v-0.6c-0.3,0.2-0.5,0.4-0.7,0.5c-0.2,0.1-0.3,0.1-0.4,0.1
				c0,0-0.1,0-0.1,0v0.6c0,0.1,0,0.2-0.1,0.3c-0.1,0.1-0.2,0.1-0.3,0.1h-0.4v1.5l0.3-0.1c0.1,0,0.2,0,0.3-0.1c0.1,0,0.1,0,0.2-0.1h0
				c0.1,0,0.2,0,0.3,0.1c0.1,0.1,0.1,0.2,0.1,0.3c0,0.1-0.1,0.2-0.3,0.4c-0.1,0.1-0.6,0.2-1.3,0.4c-0.7,0.2-1.1,0.3-1.1,0.3l-0.2,0
				h0c-0.1,0-0.2,0-0.3-0.1c-0.1-0.1-0.1-0.2-0.1-0.3c0-0.1,0-0.2,0.1-0.3c0.1-0.1,0.2-0.1,0.3-0.2v-2.9c0-0.1,0-0.2,0-0.2
				s0-0.1,0-0.1c0,0,0-0.1,0-0.1c0,0,0,0,0.1,0h0.5c0,0,0.1,0,0.1,0c0,0,0,0,0,0.1c0,0,0,0.1,0,0.1c0,0,0,0.1,0,0.1c0,0,0,0.1,0,0.2
				v2.7l0.2-0.1v-3.5h-0.3c-0.2,0-0.4-0.1-0.6-0.2c-0.1-0.1-0.2-0.3-0.2-0.6v-1.4c0-0.2,0.1-0.4,0.2-0.6c0.1-0.1,0.3-0.2,0.6-0.2
				h1.1c0.2,0,0.4,0.1,0.6,0.2c0.1,0.1,0.2,0.3,0.2,0.6v1.4c0,0.3-0.1,0.4-0.2,0.6c-0.1,0.1-0.3,0.2-0.6,0.2h0v1h0.4
				c0.1,0,0.2,0,0.3-0.1l0.1-0.1c-0.1,0-0.1,0-0.2-0.1c-0.1-0.1-0.1-0.2-0.1-0.3c0-0.2,0.1-0.3,0.3-0.4c0.6-0.4,1-0.8,1.4-1.4H208
				c-0.2,0-0.3,0-0.3,0.1l-0.1,0.1v-0.6c0-0.1,0-0.2,0.1-0.3c0.1-0.1,0.2-0.1,0.4-0.1h1.2c0-0.2,0.1-0.4,0.1-0.6
				c0-0.3,0.1-0.4,0.3-0.5c0,0,0.1,0,0.2,0c0.2,0,0.3,0.1,0.4,0.2c0,0.1,0.1,0.1,0.1,0.2c0,0.2,0,0.4-0.1,0.7h2c0.2,0,0.3,0,0.4-0.1
				l0.1-0.1v0.6c0,0.1,0,0.2-0.1,0.3c-0.1,0.1-0.2,0.1-0.4,0.1h-1.2c0.3,0.6,0.8,1,1.4,1.3c0.1,0,0.2,0.1,0.3,0.2
				c0.1,0.1,0.1,0.2,0.1,0.3c0,0.1,0,0.2-0.1,0.3c-0.1,0.1-0.2,0.1-0.3,0.1c-0.1,0-0.3-0.1-0.5-0.2c-0.2-0.1-0.3-0.3-0.6-0.4v0
				c0,0.1,0,0.2-0.1,0.3c-0.1,0.1-0.2,0.1-0.3,0.1H209.1z M205.7,110.3c0,0.1,0.1,0.2,0.2,0.2h0.7c0.1,0,0.2-0.1,0.2-0.2v-1
				c0-0.1,0-0.1,0-0.1c0,0-0.1,0-0.1,0h-0.7c-0.1,0-0.1,0-0.1,0c0,0,0,0.1,0,0.1V110.3z M212.4,112.6c0,0.1,0,0.2-0.1,0.3
				c-0.1,0.1-0.2,0.1-0.3,0.1h-2.6l-0.1,0.5v0c0,0,0,0,0,0c0,0,0,0,0,0h1.9c0.3,0,0.5,0.1,0.6,0.2c0.1,0.1,0.2,0.3,0.2,0.5
				c0,0.2,0,0.5-0.1,0.9c-0.1,0.4-0.3,0.7-0.5,0.8c-0.1,0.1-0.3,0.1-0.6,0.2c-0.3,0-0.6,0.1-0.9,0.1c-0.3,0-0.4,0-0.5-0.1
				c-0.1-0.1-0.1-0.2-0.1-0.3c0-0.1,0-0.2,0.1-0.3c0,0,0.1-0.1,0.2-0.1c0,0,0.1,0,0.2,0c0.1,0,0.2,0,0.4,0c0.3,0,0.5,0,0.7,0
				c0.1,0,0.2-0.1,0.2-0.1c0.1-0.1,0.2-0.4,0.2-0.7c0,0,0-0.1,0-0.1c0,0-0.1,0-0.1,0h-1.9c-0.3,0-0.5,0-0.6,0l-0.1,0v-0.5
				c0-0.1,0.1-0.3,0.2-0.8H208c-0.1,0-0.2,0-0.3,0.1l-0.1,0.1v-0.6c0-0.1,0-0.2,0.1-0.3c0.1-0.1,0.2-0.1,0.3-0.1h4
				c0.1,0,0.2,0,0.3-0.1l0.1-0.1V112.6z M210.8,111c-0.3-0.4-0.6-0.7-0.8-1.2h-0.3c-0.2,0.4-0.4,0.8-0.7,1.2h0.1L210.8,111
				C210.8,111.1,210.8,111.1,210.8,111"/>
		</g>
		<g>
			<path class="st8" d="M215.6,114.9v-1v-2.9h-0.7c-0.2,0-0.3,0-0.4,0.1l-0.1,0.1v-0.6c0-0.1,0-0.2,0.1-0.3c0.1-0.1,0.2-0.1,0.4-0.1
				h0.7v-1.4c0-0.1,0-0.3,0-0.3c0-0.1,0-0.1,0-0.1c0,0,0-0.1,0-0.1c0,0,0,0,0.1,0h0.6c0,0,0.1,0,0.1,0c0,0,0,0,0,0.1
				c0,0,0,0.1,0,0.1c0,0,0,0.1,0,0.1c0,0,0,0,0,0.1c0,0,0,0,0,0.1v0.1v1.4h1.5v-1.6c0-0.1,0-0.2,0-0.2c0-0.1,0-0.1,0.1-0.1
				c0,0,0.1,0,0.1,0h0.6c0,0,0.1,0,0.1,0c0,0,0,0.1,0.1,0.1c0,0.1,0,0.1,0,0.2v1.6h1.5v-1.5c0-0.1,0-0.2,0-0.3c0-0.1,0-0.1,0-0.1
				c0,0,0,0,0-0.1c0,0,0,0,0.1,0h0.6c0,0,0.1,0,0.1,0.1c0,0,0,0.1,0,0.1c0,0.1,0,0.2,0,0.3v1.5h0.7c0.1,0,0.2,0,0.2-0.1l0.1-0.1v0.6
				c0,0.2,0,0.3-0.1,0.4c-0.1,0.1-0.1,0.1-0.2,0.1h-0.7v1.9c0,0.5-0.2,0.8-0.5,0.9c-0.1,0-0.2,0-0.3,0c0,0-0.1,0-0.1,0h-1.4
				c-0.3,0-0.6-0.1-0.7-0.2c-0.1-0.1-0.2-0.3-0.2-0.6c0,0,0-0.1,0-0.1v-1.9h-1.5v3.6c0,0.1,0,0.2,0.1,0.3c0.1,0.1,0.1,0.1,0.3,0.1h0
				h4.9c0.2,0,0.3,0,0.4,0l0.1,0v0.5c0,0.1,0,0.2-0.1,0.3c-0.1,0.1-0.2,0.1-0.4,0.1h-5.1c-0.3,0-0.6-0.1-0.8-0.3
				C215.7,115.4,215.6,115.2,215.6,114.9 M220.1,113c0.2,0,0.3-0.1,0.3-0.3v-1.7h-1.5v1.7c0,0.1,0,0.2,0.1,0.2
				c0.1,0,0.1,0.1,0.2,0.1H220.1z"/>
		</g>
		<g>
			<path class="st8" d="M227,108.5c0,0.2-0.2,0.7-0.7,1.7v5.6c0,0.1,0,0.2,0,0.2c0,0.1,0,0.1-0.1,0.1c0,0-0.1,0-0.1,0h-0.5
				c0,0-0.1,0-0.1,0c0,0,0-0.1-0.1-0.1c0-0.1,0-0.1,0-0.2v-3.9c-0.1,0.2-0.2,0.4-0.3,0.4c-0.1,0.2-0.2,0.3-0.3,0.4
				c-0.1,0.1-0.2,0.1-0.3,0.1c-0.1,0-0.2,0-0.3-0.1c-0.1-0.1-0.1-0.2-0.1-0.3c0-0.1,0-0.2,0.1-0.3c0-0.1,0.1-0.2,0.2-0.3
				c0.6-1,1.1-2.1,1.5-3.2c0.1-0.2,0.1-0.3,0.2-0.4c0.1-0.1,0.2-0.1,0.3-0.1c0.2,0,0.3,0,0.4,0.1C226.9,108.2,227,108.3,227,108.5
				 M228.5,110.5c-0.1-0.6-0.1-1.3-0.1-2c0-0.1,0-0.3,0.1-0.3c0.1-0.1,0.2-0.1,0.3-0.1c0.1,0,0.3,0,0.3,0.1c0.1,0.1,0.1,0.2,0.1,0.3
				v0.4c0,0.5,0,1,0.1,1.5l1.1-0.1l1.3-0.1c0,0,0.1,0,0.1,0c0.2,0,0.3,0,0.3,0.1c0.1,0.1,0.1,0.2,0.1,0.3c0,0.1,0,0.2-0.1,0.2
				c-0.1,0.1-0.2,0.1-0.3,0.1l-0.2,0c-0.1,0-0.2,0-0.4,0l-1.8,0.1c0.1,0.8,0.3,1.5,0.5,2.1c0.2,0.6,0.6,1.1,0.9,1.5
				c0.2,0.2,0.3,0.3,0.4,0.3c0,0,0,0,0,0c0.1,0,0.2-0.1,0.2-0.3c0-0.2,0.1-0.4,0.1-0.7c0-0.2,0.1-0.3,0.2-0.3c0.1,0,0.1,0,0.2,0
				c0.2,0,0.3,0.1,0.4,0.3c0,0.1,0,0.1,0,0.2c0,0.5-0.1,1-0.2,1.3c-0.1,0.3-0.3,0.5-0.4,0.5c-0.1,0-0.1,0-0.2,0
				c-0.3,0-0.7-0.2-1-0.5c-0.2-0.2-0.5-0.5-0.8-0.9c-0.6-0.9-1-2-1.2-3.4l-1.2,0.1c-0.1,0-0.1,0-0.3,0c-0.1,0-0.2,0-0.3,0
				c-0.2,0-0.3-0.1-0.4-0.2c0-0.1,0-0.1,0-0.2c0-0.1,0-0.2,0.1-0.3c0.1-0.1,0.2-0.1,0.3-0.1l1.4-0.1
				C228.2,110.5,228.3,110.5,228.5,110.5 M230.1,108.8c0-0.1,0-0.2,0.1-0.3c0.1-0.1,0.2-0.1,0.4-0.1c0.1,0,0.2,0,0.3,0.1
				c0.1,0.1,0.2,0.2,0.3,0.3c0.2,0.2,0.3,0.4,0.4,0.5c0,0,0,0.1,0,0.1c0,0,0,0.1,0,0.1c0,0.1-0.1,0.1-0.1,0.2
				c-0.1,0-0.2,0.1-0.3,0.1c-0.1,0-0.2-0.1-0.4-0.2c-0.1-0.1-0.2-0.2-0.3-0.3c0-0.1-0.1-0.1-0.2-0.2
				C230.1,109,230.1,108.9,230.1,108.8"/>
		</g>
		<g>
			<path class="st8" d="M234.4,115.3v-5c0-0.3,0.1-0.4,0.2-0.6s0.3-0.2,0.5-0.2h0.4c0-0.3,0.1-0.6,0.2-1c0-0.1,0.1-0.2,0.1-0.3
				c0.1-0.1,0.2-0.1,0.3-0.1c0.2,0,0.3,0,0.4,0.1c0.1,0.1,0.1,0.2,0.1,0.3c0,0.1,0,0.2,0,0.3c0,0.3-0.1,0.5-0.2,0.7h0.6
				c0.2,0,0.4,0.1,0.6,0.2c0.1,0.1,0.2,0.3,0.2,0.6l0,5c0,0.2-0.1,0.4-0.2,0.6c-0.1,0.1-0.3,0.2-0.6,0.2h-1.8
				c-0.2,0-0.4-0.1-0.6-0.2C234.5,115.7,234.4,115.5,234.4,115.3 M236.8,110.5c0-0.1,0-0.1,0-0.2c0,0-0.1,0-0.2,0h-1.1
				c-0.1,0-0.2,0-0.2,0.1c0,0,0,0.1,0,0.1v1.7h1.5V110.5z M235.3,113v2c0,0.1,0,0.1,0,0.2c0,0,0.1,0,0.2,0h1.1c0.1,0,0.1,0,0.2,0
				c0,0,0-0.1,0-0.2v-2H235.3z M239.4,115.4c0.1-0.1,0.2-0.1,0.4-0.1c0.4,0,0.7,0,0.9,0c0.1,0,0.2-0.1,0.2-0.1c0,0,0.1-0.1,0.1-0.2
				c0-0.1,0.1-0.3,0.1-0.6c0-0.3,0.1-0.7,0.1-1.1c0-0.9,0.1-1.8,0.1-2.7c0-0.1,0-0.1-0.1-0.2c0,0-0.1-0.1-0.2-0.1h-1.9
				c-0.1,0.3-0.3,0.7-0.5,1c-0.1,0.2-0.2,0.2-0.4,0.2c-0.1,0-0.2,0-0.3-0.1c-0.1-0.1-0.2-0.2-0.2-0.3c0-0.1,0-0.2,0.1-0.3
				c0.2-0.5,0.4-0.8,0.5-1.2c0.1-0.4,0.3-0.8,0.4-1.3c0-0.1,0.1-0.2,0.2-0.3c0.1-0.1,0.2-0.1,0.3-0.1c0,0,0.1,0,0.1,0
				c0.1,0,0.2,0.1,0.2,0.1c0.1,0.1,0.1,0.2,0.1,0.3c0,0.1,0,0.1,0,0.2c0,0.2-0.1,0.3-0.1,0.5c0,0.1-0.1,0.3-0.1,0.3h2
				c0.3,0,0.5,0.1,0.7,0.2c0.1,0.1,0.2,0.3,0.2,0.5c0,1.1,0,2.2-0.1,3.2c-0.1,1-0.2,1.7-0.3,2.1c-0.1,0.3-0.3,0.5-0.5,0.6
				c-0.2,0.1-0.6,0.1-1,0.1c-0.2,0-0.3,0-0.4,0c-0.2,0-0.3-0.1-0.4-0.1c-0.1-0.1-0.1-0.2-0.1-0.3
				C239.3,115.6,239.4,115.5,239.4,115.4 M238.5,112.1c0-0.2,0.1-0.3,0.2-0.3c0.1,0,0.1-0.1,0.2-0.1c0.1,0,0.2,0.1,0.4,0.2
				c0.1,0.1,0.3,0.3,0.4,0.5c0.2,0.3,0.3,0.5,0.4,0.7c0.1,0.2,0.1,0.3,0.1,0.4c0,0.1,0,0.2-0.1,0.3c-0.1,0.1-0.2,0.1-0.3,0.1
				c-0.1,0-0.2,0-0.3-0.1c-0.1-0.1-0.1-0.2-0.2-0.3c-0.1-0.2-0.3-0.5-0.5-0.8l-0.1-0.2c0,0-0.1-0.1-0.1-0.2
				C238.6,112.2,238.5,112.1,238.5,112.1"/>
		</g>
		<g>
			<path class="st8" d="M244.7,111.1L244.7,111.1v-0.5c0-0.3,0.1-0.5,0.2-0.6c0.1-0.1,0.3-0.2,0.5-0.2c0,0,0.1,0,0.1,0h0.9
				c0,0,0-0.1-0.1-0.1c0-0.1,0-0.1,0-0.3v-0.1h-1.8c-0.1,0-0.2,0-0.3,0.1l-0.1,0.1v-0.6c0-0.1,0-0.2,0.1-0.3s0.2-0.1,0.3-0.1h1.8
				v-0.1c0-0.1,0-0.2,0-0.2c0-0.1,0-0.1,0.1-0.1c0,0,0.1,0,0.1,0h0.5c0,0,0.1,0,0.1,0c0,0,0.1,0.2,0.1,0.4v0.1h1.9v-0.1
				c0-0.1,0-0.2,0-0.2c0-0.1,0-0.1,0.1-0.1c0,0,0,0,0,0h0.5c0,0,0.1,0,0.1,0s0,0.1,0.1,0.1c0,0.1,0,0.1,0,0.2v0.1h1.9
				c0.1,0,0.2,0,0.3-0.1l0.1-0.1v0.6c0,0.1,0,0.2-0.1,0.3c-0.1,0.1-0.2,0.1-0.3,0.1h-1.9v0.1c0,0.1,0,0.2,0,0.2c0,0,0,0.1,0,0.1
				c0,0,0,0.1-0.1,0.1h1c0.3,0,0.5,0.1,0.6,0.2c0.1,0.1,0.2,0.3,0.2,0.5c0,0,0,0.1,0,0.1v0.5c0,0.3-0.1,0.5-0.2,0.6
				c-0.1,0.1-0.3,0.2-0.5,0.2c0,0-0.1,0-0.1,0h-5.3c-0.4,0-0.7-0.1-0.7-0.4C244.7,111.2,244.7,111.2,244.7,111.1 M244.6,115.8
				c0-0.1,0-0.2,0.1-0.3c0.1-0.1,0.2-0.1,0.4-0.1c0.8,0,1.6-0.1,2.3-0.3l-0.3-0.2c-0.2-0.2-0.4-0.3-0.5-0.4
				c-0.1-0.1-0.1-0.1-0.1-0.2c0-0.1,0-0.2,0.1-0.3c0.1-0.1,0.2-0.1,0.3-0.1c0.1,0,0.3,0.1,0.5,0.2c0.2,0.1,0.5,0.3,0.9,0.6
				c0.4-0.2,0.7-0.4,1-0.6c0.2-0.2,0.4-0.3,0.5-0.3h-3.1c-0.6,0.5-1.1,0.8-1.4,0.9c-0.1,0-0.2,0-0.2,0c-0.1,0-0.2,0-0.3-0.1
				c-0.1-0.1-0.1-0.2-0.1-0.3c0-0.1,0.1-0.3,0.4-0.5c0.1,0,0.1-0.1,0.2-0.1c0.6-0.3,1-0.6,1.4-1h-1.5c-0.1,0-0.1,0-0.2,0.1
				c0,0-0.1,0.1-0.1,0.2v0v0v0.4c0,0.1,0,0.2,0,0.2c0,0,0,0.1,0,0.1c0,0,0,0,0,0c0,0,0,0,0,0c0,0,0,0,0,0c0,0,0,0,0,0h-0.5
				c0,0-0.1,0-0.1,0s0,0,0-0.1c0,0,0-0.1,0-0.1c0,0,0-0.1,0-0.2v-0.5c0,0,0-0.1,0-0.1c0-0.3,0.1-0.5,0.2-0.6
				c0.1-0.1,0.3-0.2,0.6-0.2c0,0,0.1,0,0.1,0h6.1c0.3,0,0.6,0.1,0.7,0.2c0.1,0.1,0.2,0.3,0.2,0.6c0,0,0,0.1,0,0.1v0.5
				c0,0.2,0,0.4-0.1,0.4c0,0,0,0,0,0c0,0,0,0-0.1,0h-0.5c-0.1,0-0.1-0.1-0.1-0.2c0-0.1,0-0.1,0-0.3V113c0-0.1,0-0.1-0.1-0.2
				c0,0-0.1,0-0.2,0h0h0h-3.2l-0.3,0.3h2.9c0.3,0,0.4,0.1,0.5,0.2c0.1,0.1,0.1,0.2,0.1,0.3c0,0.1,0,0.1-0.1,0.2
				c0,0.1-0.1,0.2-0.2,0.3c-0.2,0.2-0.6,0.5-1,0.8c-0.9,0.6-2,1-3.2,1.2l-1.2,0.2c-0.2,0-0.3,0-0.3,0c-0.1,0-0.2,0-0.3-0.1
				C244.6,116,244.6,115.9,244.6,115.8 M246.7,111.1v-0.6h-1.1c-0.1,0-0.1,0-0.1,0c0,0,0,0.1,0,0.1v0.3c0,0.1,0,0.1,0,0.1
				c0,0,0.1,0,0.1,0H246.7z M249.1,109.4v-0.1h-1.9v0.1c0,0.1,0,0.2,0,0.2c0,0.1,0,0.1-0.1,0.1h2.1c0,0-0.1-0.1-0.1-0.1
				C249.1,109.6,249.1,109.5,249.1,109.4 M247.5,111.1h1.2v-0.6h-1.2V111.1z M250.8,110.9v-0.3c0-0.1,0-0.1,0-0.1c0,0-0.1,0-0.1,0
				h-1.1v0.6h1.1c0.1,0,0.1,0,0.1-0.1C250.8,111,250.8,111,250.8,110.9"/>
		</g>
		<g>
			<path class="st8" d="M251,89c0,2.1-1.5,3.8-3.5,4.2c-0.2,0-0.5,0.1-0.7,0.1h-10.2c2.3,0,5-1.9,5-4.2c0-2.3-1.9-4.2-4.2-4.2
				c2.3,0,4.2-1.9,4.2-4.2c0-2.3-2.7-4.2-5-4.2h7.5c0.2,0,3.1,0,3.4,0.1c2,0.3,3.5,2.1,3.5,4.2c0,2.1-1.5,3.8-3.5,4.2
				c-0.2,0-0.5,0.1-0.7,0.1c0.2,0,0.5,0,0.7,0.1C249.4,85.2,251,86.9,251,89"/>
		</g>
		<g>
			<path class="st8" d="M234.4,80.5c0,1-0.8,1.8-1.8,1.8h-10.3v-3.5h10.3C233.6,78.7,234.4,79.5,234.4,80.5"/>
		</g>
		<g>
			<path class="st8" d="M234.4,88.8c0,1-0.8,1.8-1.8,1.8h-10.3V87h10.3C233.6,87,234.4,87.8,234.4,88.8"/>
		</g>
		<g>
			<rect x="205.1" y="76.4" class="st8" width="10" height="16.9"/>
		</g>
		<g>
			<path class="st8" d="M128.4,126.6c-5.2,0-10.4-0.8-15.3-2.5l-0.2-0.1c-0.4-0.1-0.8-0.3-1.2-0.4C96.5,118,85,104.7,81.6,89
				c-0.3-1.2-0.5-2.5-0.6-3.7c-0.3-2-0.4-4.1-0.4-6.1c0-4.6,0.7-9.1,1.9-13.4c1.6-5.2,7.4-14.6,7.6-14.9c0.1-0.2,0.9-1.3,2.4-3.4
				l2.8-3.9c2.3-3.2,5-7,7.9-11.1c8.4-11.7,17.7-24.8,18.1-25.3c0.4-0.6,1.1-0.9,1.7-0.9h32.2c0.8,0,1.5,0.4,1.9,1.2
				c0.4,0.7,0.3,1.6-0.2,2.2l-16.8,23.6l2.9,0.9c0.2,0.1,0.5,0.2,0.7,0.2c0.5,0.2,1,0.3,1.5,0.5c0.5,0.2,1,0.4,1.5,0.6l0.9,0.4
				c0.8,0.3,1.5,0.7,2.2,1c0,0,0.7,0.3,0.9,0.5l0.7,0.4c0.4,0.2,0.9,0.5,1.4,0.8l0.2,0.1c14.5,8.7,23.1,23.9,23.1,40.6
				C176.2,105.4,154.7,126.6,128.4,126.6 M129.8,58.9c-2.9,0-5.7,0.6-8.3,1.8c-6.3,2.9-10.7,9-11.4,15.9c-0.1,0.6-0.1,1.3-0.1,1.9
				c0,10.8,8.9,19.6,19.8,19.6c0.9,0,1.7-0.1,2.6-0.2c9.8-1.3,17.1-9.7,17.1-19.4c0-9.6-7.2-17.9-16.7-19.4
				C131.8,58.9,130.8,58.9,129.8,58.9"/>
		</g>
		<g>
			<path class="st9" d="M155.2,8.4l-15,21.1l-3.5,4.9l5.7,1.8c0.2,0.1,0.4,0.1,0.7,0.2c0.5,0.2,1,0.3,1.4,0.5c0.5,0.2,1,0.4,1.4,0.6
				l0.8,0.4c0.8,0.3,1.4,0.7,2.1,1c0,0,0.6,0.3,0.8,0.4l0.7,0.4c0.4,0.2,0.9,0.5,1.4,0.8l0.2,0.1c13.8,8.3,22,22.8,22,38.7
				c0,24.9-20.5,45.2-45.6,45.2c-5,0-9.9-0.8-14.6-2.4l-0.2-0.1c-0.4-0.1-0.7-0.3-1.1-0.4c-14.5-5.4-25.5-18-28.7-33
				c-0.2-1.2-0.5-2.4-0.6-3.5c-0.3-1.9-0.4-3.9-0.4-5.8c0-4.3,0.6-8.6,1.9-12.8C85.8,62.5,90,55.3,92,52c0.1-0.2,1-1.4,2.4-3.3
				l2.8-3.9c2-2.9,4.6-6.5,7.9-11.1c8-11.3,17-23.8,18.1-25.3H155.2z M129.8,100.3c1,0,1.9-0.1,2.9-0.2
				c10.9-1.4,19.1-10.7,19.1-21.6c0-10.6-8-19.9-18.6-21.6c-1.1-0.2-2.3-0.3-3.4-0.3c-3.2,0-6.3,0.7-9.3,2
				c-7.1,3.3-11.9,10.1-12.6,17.7c-0.1,0.7-0.1,1.4-0.1,2.1C107.8,90.5,117.7,100.3,129.8,100.3 M155.3,4h-32.2
				c-1.4,0-2.7,0.7-3.5,1.8c-2,2.7-10.5,14.6-18.1,25.3c-2.9,4-5.6,7.9-7.9,11.1l-2.8,3.9c-1.9,2.6-2.3,3.3-2.5,3.5
				c-0.3,0.4-6.2,10-7.8,15.5c-1.4,4.5-2,9.3-2,14c0,2.1,0.1,4.3,0.4,6.4c0.2,1.3,0.4,2.6,0.7,3.9c3.5,16.4,15.5,30.3,31.4,36.2
				c0.4,0.2,0.9,0.3,1.3,0.5l0.2,0.1c5.2,1.7,10.6,2.6,16,2.6c27.6,0,50-22.3,50-49.6c0-17.5-9-33.3-24.2-42.4l-0.2-0.1
				c-0.5-0.3-1-0.6-1.5-0.9l-0.7-0.4c-0.3-0.1-0.9-0.5-0.9-0.5c-0.7-0.4-1.5-0.7-2.3-1.1l-0.9-0.4c-0.5-0.2-1-0.4-1.6-0.6
				c-0.5-0.2-1-0.4-1.5-0.5c-0.2-0.1-0.5-0.2-0.8-0.3l15.1-21.2c0.9-1.3,1.1-3.1,0.3-4.5C158.5,4.9,157,4,155.3,4 M129.8,95.9
				c-9.7,0-17.6-7.8-17.6-17.4c0-0.6,0-1.1,0.1-1.7c0.6-6.1,4.4-11.5,10.1-14.1c2.3-1.1,4.8-1.6,7.4-1.6c0.9,0,1.8,0.1,2.7,0.2
				c8.5,1.3,14.9,8.7,14.9,17.2c0,8.7-6.6,16.1-15.2,17.3C131.3,95.9,130.6,95.9,129.8,95.9"/>
		</g>
		<g>
			<path class="st8" d="M195.2,122.5v-2.9c-9.9,0-19.1-3.2-26.6-8.6c-0.6,0.8-1.3,1.5-1.9,2.2C174.7,119.1,184.5,122.5,195.2,122.5"
				/>
		</g>
		<g>
			<path class="st10" d="M242,61.3l-3.9-2.7c-6.3-17.6-23.2-30.3-42.9-30.3c-12.5,0-23.8,5-32,13.2c-0.7-0.7-1.5-1.3-2.2-1.9
				c8.8-8.8,20.9-14.2,34.3-14.2C217.5,25.5,236.4,40.7,242,61.3"/>
		</g>
		<g>
			<path class="st8" d="M178.5,67.7c-0.3-1.4-0.7-2.9-1.2-4.3c-0.8-2.4-1.7-4.7-2.8-6.9c-0.5-0.9-1-1.9-1.5-2.8
				c-1.1-1.9-2.3-3.7-3.6-5.4c-0.6-0.8-1.2-1.5-1.9-2.3c-1.4-1.6-2.9-3.1-4.4-4.5c-0.7-0.7-1.5-1.3-2.2-1.9
				c-0.7-0.6-1.5-1.2-2.3-1.8c-0.5-0.3-1-0.7-1.5-1c-0.4-0.3-0.8-0.5-1.1-0.7c-0.3-0.2-0.7-0.4-1-0.6l-0.2-0.1
				c-0.1-0.1-0.2-0.1-0.3-0.2c-0.5-0.3-0.9-0.5-1.3-0.7l-0.7-0.4c-0.3-0.1-1-0.5-1-0.5c-0.7-0.4-1.5-0.7-2.4-1.1l-0.9-0.4
				c-0.5-0.2-1.1-0.4-1.6-0.6c-0.1-0.1-0.3-0.1-0.5-0.2l13.9-19.6c1.3-1.8,1.4-4.1,0.4-6c-1-1.9-3-3.1-5.2-3.1h-32.2
				c-1.9,0-3.6,0.9-4.7,2.4c-0.4,0.5-9.8,13.6-18.1,25.3c-2.9,4-5.6,7.9-7.9,11.1l-2.8,3.9c-1.9,2.7-2.4,3.3-2.6,3.6
				c-0.6,1-6.3,10.2-8,15.8c-1.4,4.7-2.1,9.5-2.1,14.4c0,2.2,0.1,4.4,0.4,6.6c0.2,1.3,0.4,2.7,0.7,4c3.6,16.9,16,31.2,32.4,37.3
				c0.4,0.2,0.9,0.3,1.3,0.5l0.2,0.1c5.3,1.8,10.9,2.7,16.5,2.7c11.7,0,22.5-3.9,31.1-10.4c0.5-0.4,1-0.8,1.6-1.2
				c0.3-0.2,0.6-0.5,0.9-0.7c0.5-0.4,1-0.9,1.5-1.3c1.1-1.1,2.2-2.2,3.3-3.3c0.7-0.7,1.3-1.5,1.9-2.2c1.3-1.6,2.5-3.4,3.7-5.2
				c0.5-0.8,1-1.7,1.5-2.5c1-1.9,1.9-3.9,2.7-5.9c0.4-1,0.7-2,1-2.9c0.7-2.4,1.3-4.8,1.7-7.3c0.2-1.4,0.4-2.9,0.5-4.4
				c0.1-1.2,0.1-2.4,0.1-3.6C179.8,75.3,179.4,71.4,178.5,67.7 M176.5,85.5c0,0.3-0.1,0.6-0.1,0.8c0,0.2-0.1,0.5-0.1,0.7
				c0,0.2-0.1,0.5-0.1,0.7c0,0.1,0,0.2-0.1,0.3c0,0.3-0.1,0.5-0.2,0.8c0,0.1,0,0.1,0,0.2c-0.1,0.3-0.1,0.5-0.2,0.8
				c0,0.1-0.1,0.3-0.1,0.4c-0.1,0.2-0.1,0.5-0.2,0.7c0,0.1,0,0.2-0.1,0.2c-0.1,0.3-0.1,0.5-0.2,0.8c0,0,0,0.1,0,0.1c0,0,0,0.1,0,0.1
				c-0.1,0.2-0.1,0.4-0.2,0.5c0,0.1-0.1,0.3-0.1,0.4c-0.1,0.2-0.1,0.4-0.2,0.5c-0.2,0.5-0.3,1.1-0.5,1.6c-0.1,0.4-0.3,0.8-0.4,1.1
				c-0.1,0.3-0.2,0.5-0.3,0.8c-0.1,0.3-0.2,0.5-0.3,0.8c-0.1,0.3-0.3,0.7-0.5,1c-0.1,0.3-0.3,0.6-0.4,0.8c-0.1,0.3-0.3,0.5-0.4,0.8
				c-0.1,0.2-0.2,0.5-0.4,0.7c-0.1,0.2-0.2,0.4-0.3,0.6c-0.4,0.7-0.7,1.3-1.1,1.9c-0.1,0.2-0.2,0.3-0.3,0.5
				c-0.1,0.2-0.2,0.3-0.3,0.5c-0.1,0.1-0.2,0.3-0.3,0.4c-0.4,0.6-0.7,1.1-1.1,1.6c-0.1,0.2-0.3,0.4-0.4,0.6c0,0-0.1,0.1-0.1,0.1
				c-0.2,0.2-0.3,0.4-0.5,0.6c-0.2,0.3-0.5,0.6-0.7,0.9c-0.6,0.8-1.2,1.5-1.9,2.2c-1,1.1-2.1,2.2-3.3,3.3c-0.5,0.4-0.9,0.8-1.4,1.2
				c-0.3,0.3-0.6,0.5-1,0.8c-0.5,0.4-1,0.8-1.5,1.1c-8.1,5.9-18,9.5-28.8,9.5c-5.3,0-10.5-0.9-15.5-2.5l-0.2-0.1
				c-0.4-0.1-0.8-0.3-1.2-0.4c-15.4-5.7-27.1-19.2-30.5-35.1c-0.3-1.2-0.5-2.5-0.6-3.8c-0.3-2-0.4-4.1-0.4-6.2c0-4.6,0.7-9.2,2-13.6
				c1.6-5.3,7.4-14.7,7.7-15.1c0.1-0.2,0.7-1.1,2.4-3.5l2.8-3.9c2.3-3.2,5-7,7.9-11.1c8.4-11.7,17.7-24.8,18.1-25.3
				c0.5-0.8,1.4-1.2,2.3-1.2h32.2c1.1,0,2.1,0.6,2.6,1.6c0.5,1,0.4,2.1-0.2,3l-16.2,22.8l1.9,0.6c0.2,0.1,0.5,0.2,0.7,0.2
				c0.5,0.2,1,0.3,1.5,0.5c0.5,0.2,1,0.4,1.5,0.6l0.9,0.4c0.8,0.4,1.5,0.7,2.2,1c0,0,0.7,0.3,0.9,0.5l0.7,0.4c0.4,0.2,1,0.5,1.5,0.8
				l0.2,0.1c0.2,0.1,0.3,0.2,0.5,0.3c0.9,0.5,1.8,1.1,2.6,1.7c0.8,0.6,1.6,1.2,2.4,1.8c0.8,0.6,1.5,1.2,2.2,1.9
				c1.2,1.1,2.3,2.2,3.4,3.4c0.2,0.2,0.3,0.4,0.5,0.6c0.2,0.2,0.4,0.4,0.5,0.6c0.3,0.4,0.6,0.8,1,1.2c0.1,0.2,0.3,0.4,0.4,0.5
				c0.2,0.2,0.3,0.4,0.5,0.6c0,0,0,0,0,0c0.2,0.2,0.3,0.4,0.5,0.6c0.2,0.2,0.3,0.5,0.5,0.7c0.1,0.2,0.3,0.4,0.4,0.6
				c0.2,0.3,0.4,0.6,0.5,0.8c0.2,0.2,0.3,0.5,0.4,0.7c0.1,0.2,0.3,0.5,0.4,0.7c0.1,0.2,0.3,0.5,0.4,0.7c0.1,0.2,0.3,0.5,0.4,0.7
				c0.5,1,1,2,1.5,3c0,0,0,0.1,0,0.1c0.1,0.3,0.3,0.6,0.4,0.9c0.1,0.3,0.3,0.7,0.4,1c0.1,0.2,0.2,0.5,0.3,0.8c0,0,0,0.1,0,0.1
				c0,0.1,0.1,0.2,0.1,0.3c0,0,0,0.1,0,0.1c0.1,0.2,0.2,0.5,0.3,0.7c0.1,0.3,0.2,0.7,0.3,1c0,0,0,0.1,0,0.1c0.1,0.3,0.2,0.7,0.3,1
				c0,0,0,0.1,0,0.1c0.1,0.3,0.2,0.6,0.3,1c0,0,0,0,0,0c0.1,0.4,0.2,0.7,0.3,1.1v0c0.1,0.2,0.1,0.5,0.2,0.7c0,0.2,0.1,0.4,0.1,0.6
				c0.3,1.2,0.5,2.5,0.7,3.8c0,0.2,0,0.4,0.1,0.5c0,0.1,0,0.3,0,0.4c0,0.2,0,0.4,0.1,0.6c0,0.1,0,0.1,0,0.2c0,0.2,0,0.3,0,0.5
				c0,0.5,0.1,1,0.1,1.5c0,0.2,0,0.5,0,0.7c0,0.2,0,0.5,0,0.7c0,0.2,0,0.5,0,0.7c0,0.3,0,0.5,0,0.7c0,1.4-0.1,2.8-0.2,4.2v0
				C176.7,84.1,176.6,84.8,176.5,85.5"/>
		</g>
		<g>
			<path class="st8" d="M146.8,70.1c-0.9-1.8-2.1-3.5-3.6-4.9c-0.8-0.8-1.7-1.5-2.6-2.2c-2.3-1.6-5-2.7-7.8-3.1c-1-0.2-2-0.2-3-0.2
				c-2.8,0-5.5,0.6-8,1.8c-6.1,2.8-10.3,8.7-10.9,15.3c-0.1,0.6-0.1,1.2-0.1,1.8c0,10.4,8.5,18.9,19.1,18.9c0.8,0,1.7-0.1,2.5-0.2
				c3.5-0.5,6.6-1.8,9.2-3.9c0.9-0.7,1.7-1.5,2.5-2.4c1.7-1.9,2.9-4,3.8-6.4c0.7-1.9,1-4,1-6.1C148.8,75.5,148.1,72.6,146.8,70.1
				 M143.2,87.4c-0.7,1-1.6,2-2.5,2.9c-2.4,2.1-5.4,3.6-8.7,4.1c-0.8,0.1-1.5,0.1-2.2,0.1c-8.9,0-16.1-7.2-16.1-16
				c0-0.5,0-1,0.1-1.5c0.5-5.6,4.1-10.6,9.2-13c2.1-1,4.4-1.5,6.8-1.5c0.8,0,1.7,0.1,2.5,0.2c2.9,0.4,5.5,1.6,7.6,3.4
				c1,0.8,1.9,1.7,2.7,2.7c2.1,2.7,3.3,6.1,3.3,9.7C145.9,81.8,144.9,84.8,143.2,87.4"/>
		</g>
		<g>
			<path class="st8" d="M195.2,119.6h1.4H257c1.3-0.1,2.4-1.2,2.4-2.5V91.5h3.1V117c0,2.9-2.3,5.3-5.3,5.6l-0.1,0h-60.6h-1.4"/>
		</g>
		<g>
			<path class="st8" d="M260.8,76.7l-18.1-12.3l-3.6-2.5l-9.3-6.4l-0.1-0.1c-0.5-0.3-1.1-0.5-1.6-0.5c-0.6,0-1.1,0.2-1.6,0.5
				l-5.3,3.6l-2.4,1.7l-5.3,3.6L211,66l-15.7,10.7c-1.1,0.7-1.7,1.9-1.7,3.2v14.8c0.5,0,1,0.1,1.5,0.1h1.5V79.5l15.5-10.6l2.5-1.7
				l5.4-3.7l2.5-1.7l5.3-3.6l0.2-0.1l4.1,2.8l7.9,5.4l3.3,2.2l16,10.9v4.1h3.1v-3.7C262.5,78.6,261.8,77.4,260.8,76.7"/>
		</g>
	</g>
	<g>
		<path class="st8" d="M8.7,29.1c-0.4,1.3-0.9,2.5-1.4,3.8H2c0.6-1.2,1.1-2.5,1.5-3.7c0.5-1.3,0.9-2.6,1.2-3.9h5.1
			C9.5,26.5,9.1,27.8,8.7,29.1z M30,23.3c-0.1-0.3-0.3-0.6-0.4-1c-0.2-0.4-0.3-0.7-0.4-1l-0.9,1.9h-7.2c-0.9,0-1.5-0.3-1.8-0.9
			c-0.2-0.3-0.2-0.7-0.2-1c0.1-0.4,0.3-0.8,0.6-1.2l3.8-4.2h-2.6c-0.5,0-0.9-0.1-1.2-0.3S19,15.3,18.8,15c-0.2-0.3-0.3-0.6-0.3-1
			c0-0.4,0.2-0.8,0.6-1.3l3.6-4.8h-8.8l-4.6,5h1.7l1.5-1.5h6L12.9,17h3.5c0.3,1.1,0.7,2.1,1.1,3.2c0.4,1.1,0.9,2.1,1.4,3.1h-4.6
			c-0.2-0.3-0.4-0.8-0.6-1.2c-0.2-0.5-0.4-0.9-0.5-1.1L12,23.3H4.9c-0.4,0-0.8-0.1-1.1-0.3c-0.3-0.2-0.5-0.4-0.7-0.8
			C3,21.9,2.9,21.5,3,21.2c0.1-0.4,0.2-0.7,0.6-1l4.3-4.2H4.9c-0.5,0-0.8-0.1-1.2-0.3c-0.3-0.2-0.6-0.4-0.7-0.7
			c-0.1-0.3-0.2-0.7-0.1-1.1c0-0.4,0.2-0.7,0.5-1.1l4.5-4.9H2.4V4.9h5.7c-0.3-0.5-0.7-1-1-1.5c-0.3-0.5-0.7-1.1-1-1.6h6.5
			c0.3,0.5,0.6,1.1,1,1.6c0.4,0.5,0.7,1,1.2,1.5h6.9c0.5-0.5,0.9-1,1.2-1.5c0.3-0.5,0.7-1,1.1-1.6h6.2c-0.3,0.5-0.6,1.1-0.9,1.6
			c-0.3,0.5-0.6,1-1,1.5h5.5v3.1h-5.7l-3.8,5h1.8l1.3-1.5h5.8L28.4,17h3.7c0.3,1.1,0.6,2.1,1,3.2c0.4,1.1,0.8,2.1,1.3,3.1H30z
			 M12.5,19.1c-0.2-0.5-0.3-0.9-0.5-1.3l-2.5,2.5h3.4C12.8,20,12.7,19.6,12.5,19.1z M25.8,33.6H14.3c-1.3,0-2.2-0.3-2.7-0.9
			c-0.5-0.6-0.8-1.6-0.8-3v-5H16v5c0,0.1,0.1,0.3,0.2,0.4c0.1,0.1,0.3,0.2,0.4,0.2h10.2L25.8,33.6z M19,29.1
			c-0.6-1.6-1.2-3.2-1.6-4.9h5c0.3,0.8,0.5,1.7,0.8,2.5c0.3,0.8,0.6,1.6,1,2.4H19z M28.4,19c-0.2-0.6-0.3-1-0.4-1.4l-2.4,2.7h3.2
			C28.7,20,28.5,19.6,28.4,19z M29.1,32.9c-0.6-1.3-1.2-2.6-1.7-3.9c-0.5-1.3-1-2.6-1.4-3.9h5.1c0.5,1.3,1,2.6,1.5,3.9
			s1.1,2.6,1.7,3.9H29.1z"/>
		<path class="st8" d="M69.1,33.7h-9.3c-0.8,0-1.4-0.1-1.9-0.4c-0.5-0.3-0.9-0.6-1.1-1.1c-0.2-0.4-0.4-0.8-0.5-1.2
			c-0.1-0.5-0.1-0.9-0.1-1.5v-10h-4.5c0,1.6,0,3.1-0.1,4.4c-0.1,1.3-0.3,2.5-0.7,3.6c-0.4,1.1-0.9,2.1-1.7,3.1
			c-0.7,1-1.8,2.1-3.2,3.1h-8c0.9-0.7,1.8-1.4,2.5-2c0.7-0.6,1.4-1.2,2-1.8c0.6-0.6,1.1-1.1,1.5-1.7c0.4-0.6,0.7-1.1,1-1.7
			c0.4-0.9,0.7-1.9,0.8-3.1c0.1-1.1,0.2-2.5,0.2-4h-7.6V16h13V1.8h5.5V16h13v3.4h-8.2v9.8c0,0.3,0.1,0.6,0.3,0.8
			c0.2,0.2,0.5,0.3,0.8,0.3h7.5L69.1,33.7z M44,13.6c-1-1.6-1.8-3.2-2.6-4.9c-0.8-1.7-1.5-3.4-2.1-5.1h5.9c0.7,1.7,1.5,3.4,2.3,5.1
			c0.8,1.7,1.7,3.3,2.8,4.9H44z M67,8.7c-0.7,1.7-1.6,3.3-2.7,4.9h-6.1c1.1-1.6,2-3.2,2.8-4.8c0.8-1.7,1.4-3.4,2.1-5.1h6
			C68.4,5.4,67.7,7.1,67,8.7z"/>
	</g>
	<g>
		<path class="st8" d="M312.2,121.3h-16.2c-1.6,0-3-0.3-4.4-0.8c-0.6-0.3-1.2-0.6-1.8-0.9s-1.1-0.8-1.7-1.2c-0.4,1-0.9,1.9-1.5,2.9
			h-5.4c2.1-3.4,3.6-7.1,4.4-10.9c0-0.2,0-0.3-0.1-0.4c-0.1-0.1-0.2-0.1-0.3-0.1h-1.4c-0.6,0-1.1-0.2-1.4-0.7
			c-0.2-0.3-0.3-0.6-0.4-0.9c0-0.4,0-0.7,0.2-1.1c0.4-1,0.8-1.9,1.1-2.9c0.4-1,0.7-2,1-2.9c0-0.1,0-0.2,0-0.3
			c-0.1-0.1-0.2-0.2-0.3-0.2h-2.7v-3.2h6.5c0.4,0,0.7,0.1,1,0.3c0.3,0.2,0.5,0.4,0.7,0.6c0.2,0.3,0.3,0.6,0.4,0.9
			c0.1,0.3,0,0.7-0.1,1c-0.3,1.1-0.7,2.1-1.1,3.2c-0.4,1-0.8,2.1-1.2,3.2h1c0.9,0,1.6,0.3,2,0.8c0.2,0.3,0.3,0.7,0.4,1.1
			c0,0.4,0,0.9-0.1,1.4c-0.1,1-0.3,1.9-0.6,2.8c-0.2,0.9-0.5,1.8-0.8,2.7c0.2,0.3,0.6,0.6,1,0.8c0.5-1.7,0.9-3.3,1-4.9
			c0.2-1.6,0.3-3.2,0.3-5V92.3c0-0.4,0.1-0.8,0.3-1.1c0.2-0.3,0.4-0.6,0.7-0.8c0.6-0.5,1.3-0.8,2.2-0.8H309c0.6,0,1,0.1,1.5,0.3
			c0.4,0.2,0.8,0.5,1,0.8c0.5,0.6,0.7,1.4,0.7,2.3v21c0,0.9-0.3,1.5-0.8,2c-0.5,0.5-1.2,0.8-2.1,0.8h-4.5l-0.8-3h3
			c0.1,0,0.3-0.1,0.4-0.2c0.1-0.1,0.2-0.3,0.2-0.4V93.6c0-0.2-0.1-0.4-0.3-0.5c-0.2-0.2-0.3-0.2-0.5-0.2h-2.6v2h2.1v3h-2.1v1.7h2.6
			v2.9h-2.6v1.3c0.6,0.1,1.1,0.3,1.5,0.7c0.5,0.4,0.7,0.9,0.7,1.5v4.6c0,0.7-0.2,1.3-0.6,1.7c-0.4,0.4-0.9,0.5-1.5,0.5h-4.5
			c-0.6,0-1.2-0.2-1.5-0.6c-0.4-0.5-0.6-1-0.6-1.6v-4.6c0-0.3,0.1-0.5,0.2-0.8c0.1-0.3,0.3-0.5,0.5-0.7c0.4-0.4,0.9-0.6,1.5-0.6
			v-1.3H297v-2.9h2.7v-1.7h-2.2v-3h2.2v-2h-2.8c-0.2,0-0.3,0.1-0.5,0.3c-0.2,0.2-0.2,0.3-0.2,0.5v15c0,1.2-0.1,2.6-0.3,3.9
			c-0.2,1.4-0.4,2.7-0.8,4h-4.3c0.8,0.6,1.8,0.9,2.8,1.2s2,0.3,3,0.3h16.5L312.2,121.3z M284.6,95.9c-1.2-2.1-2.2-4.3-3-6.6h5.7
			c0.4,1.2,0.9,2.3,1.4,3.3s1.1,2.1,1.7,3.2H284.6z M302.7,107.2c0-0.1,0-0.2-0.1-0.3s-0.2-0.1-0.3-0.1h-0.6c-0.1,0-0.2,0-0.3,0.1
			s-0.1,0.2-0.1,0.3v2.1c0,0.3,0.2,0.5,0.5,0.5h0.5c0.3,0,0.4-0.2,0.4-0.5V107.2z"/>
		<path class="st8" d="M336.9,114.1v7.2h-5.4v-7.2h-14v-3.3h2.6v-6.3c0-0.4,0.1-0.8,0.3-1.2c0.2-0.4,0.4-0.7,0.6-1
			c0.3-0.3,0.6-0.6,1-0.7c0.4-0.2,0.8-0.3,1.2-0.3h8.4v-5.5h-6.3c-0.6,1.5-1.3,2.9-2.1,4.2h-6.1c1-1.7,1.9-3.4,2.8-5.2
			c0.8-1.8,1.5-3.6,2.2-5.5h5.6c-0.2,1-0.6,2.1-1,3.1H348v3.3h-11.2v5.5h10.5v3.4h-10.5v6h11.8v3.3H336.9z M331.4,104.7h-5.2
			c-0.3,0-0.5,0.1-0.7,0.2c-0.2,0.2-0.3,0.4-0.3,0.6v5.2h6.1V104.7z"/>
		<path class="st8" d="M357.2,117.1c-0.2,1.4-0.4,2.8-0.7,4.2h-3.9c0.4-1.4,0.7-2.8,0.9-4.2c0.2-1.4,0.4-2.9,0.5-4.3h3.6
			C357.5,114.2,357.4,115.7,357.2,117.1z M364.2,111.3c-0.2-0.5-0.4-0.9-0.5-1.3s-0.3-0.8-0.4-1.2l-0.8,2.5h-7.1
			c-0.5,0-0.9-0.1-1.2-0.3c-0.3-0.2-0.6-0.4-0.8-0.7c-0.2-0.3-0.3-0.7-0.3-1.2c0-0.4,0.2-0.9,0.5-1.3l4.1-5.7h-2.3
			c-0.6,0-1.1-0.1-1.6-0.4c-0.4-0.3-0.8-0.6-1-1c-0.2-0.4-0.3-0.8-0.3-1.2c0-0.5,0.2-1,0.5-1.5l5.6-8.6h5.5l-6.1,9.3h2.1l1.8-2.6
			h5.5l-8.6,11.8h4.1c-0.1-0.4-0.2-0.9-0.3-1.4s-0.2-1-0.3-1.4h3.5c0.3,1.1,0.5,2.1,0.8,3.1c0.3,1,0.6,2,0.9,3H364.2z M358.8,121.2
			c-0.2-1.4-0.3-2.9-0.4-4.2s-0.1-2.8-0.1-4.3h3.6c0,1.5,0.1,2.9,0.2,4.3s0.3,2.8,0.5,4.2H358.8z M363.9,121.2
			c-0.3-1.4-0.5-2.8-0.6-4.2c-0.2-1.4-0.3-2.9-0.4-4.3h3.7c0.1,1.5,0.3,2.9,0.4,4.3c0.2,1.4,0.4,2.8,0.6,4.2H363.9z M384.6,121.2
			h-12.9c-1,0-1.8-0.4-2.4-1.1c-0.5-0.6-0.7-1.4-0.7-2.3v-11.6c0-0.9,0.3-1.6,0.8-2.3c0.6-0.7,1.3-1,2.4-1h6.4
			c0.1,0,0.2-0.1,0.4-0.2c0.1-0.1,0.2-0.3,0.2-0.4v-8.3c0-0.1-0.1-0.2-0.2-0.3s-0.3-0.2-0.4-0.2h-9.9v-3.4h12.2
			c1.2,0,2.1,0.3,2.7,0.9c0.6,0.6,0.9,1.5,0.9,2.6v9.2c0,1-0.3,1.9-0.8,2.5c-0.6,0.7-1.5,1.1-2.8,1.1h-6.1c-0.1,0-0.2,0-0.3,0.1
			c-0.1,0.1-0.1,0.2-0.1,0.3v10.5c0,0.1,0.1,0.2,0.2,0.4c0.1,0.1,0.2,0.2,0.3,0.2h11.1L384.6,121.2z"/>
		<path class="st8" d="M396.2,115.5c-0.5,1.7-0.9,3.3-1.5,4.8h-6c0.7-1.7,1.3-3.4,1.8-5c0.5-1.6,0.9-3.2,1.3-4.9h5.5
			C397.1,112.1,396.7,113.8,396.2,115.5z M414.2,100.1c-0.9-1.1-1.7-2.2-2.6-3.2c-0.8-1.1-1.7-2.2-2.5-3.3c-0.1-0.1-0.3-0.2-0.5-0.4
			c-0.2-0.1-0.4-0.2-0.6-0.2h-5.9c-0.4,0-0.8,0.2-1,0.6c-0.8,1.1-1.6,2.2-2.4,3.3c-0.8,1.1-1.7,2.1-2.6,3.1h-7.2
			c1.2-1.3,2.5-2.7,3.7-4.1c1.2-1.4,2.4-3,3.6-4.6c0.3-0.5,0.8-0.8,1.4-1.2c0.6-0.3,1.1-0.5,1.7-0.5h10.8c0.4,0,0.8,0,1.1,0.1
			c0.3,0,0.7,0.1,1,0.3c0.6,0.2,1.1,0.6,1.5,1.2c1.2,1.5,2.4,3,3.6,4.5c1.2,1.5,2.5,2.9,3.8,4.4H414.2z M419.2,104.3
			c-0.2,0.5-0.3,0.9-0.5,1.3c-0.1,0.4-0.3,0.8-0.5,1.2s-0.3,0.8-0.5,1.1c-0.2,0.4-0.4,0.8-0.7,1.2h-6c0.4-0.6,0.8-1.3,1.1-2
			c0.3-0.7,0.6-1.4,0.9-2.1c0-0.1,0-0.2,0-0.3c-0.1-0.1-0.2-0.2-0.3-0.2h-21.9v-3.2h26.4c0.9,0,1.5,0.3,1.8,0.9
			C419.4,102.9,419.5,103.5,419.2,104.3z M413,121.2h-11.2c-1.1,0-2-0.3-2.6-1c-0.6-0.7-0.8-1.5-0.8-2.6v-9.4h5.1v8.8
			c0,0.2,0.1,0.4,0.3,0.6c0.2,0.2,0.4,0.3,0.6,0.3h9.7L413,121.2z M403.7,100.2c-0.2-0.4-0.4-0.8-0.7-1.2c-0.2-0.4-0.5-0.9-0.7-1.3
			s-0.5-0.9-0.7-1.3c-0.2-0.4-0.4-0.8-0.6-1.2h5.5c0.4,0.8,0.9,1.6,1.4,2.5c0.5,0.9,1,1.8,1.5,2.5H403.7z M406.6,116.2
			c-0.4-1.2-0.8-2.7-1.2-4.3c-0.4-1.6-0.8-3.3-1.2-4.8h5.4c0.1,0.6,0.3,1.2,0.6,2c0.2,0.8,0.5,1.6,0.7,2.5s0.5,1.7,0.8,2.5
			s0.5,1.5,0.8,2.1H406.6z M415.8,120.3c-0.3-0.7-0.6-1.5-0.9-2.3c-0.3-0.8-0.6-1.7-0.9-2.5c-0.3-0.9-0.6-1.7-0.8-2.6
			c-0.3-0.9-0.5-1.7-0.7-2.4h5.3c0.2,0.7,0.5,1.5,0.8,2.4s0.6,1.7,0.9,2.6c0.3,0.9,0.7,1.7,1,2.6s0.7,1.6,1,2.3H415.8z"/>
		<path class="st8" d="M454.9,106.7v12c0,0.9-0.3,1.6-1,2.1c-0.3,0.2-0.7,0.3-1,0.4s-0.8,0.1-1.2,0.1H447l-0.4-0.9h-4.2v-13.7h-2.8
			v13.7h-4.7v-13.7h-2.7v14.6H427v-14.6h-2.3v-3.2h2.3V92.5c0-0.6,0.3-1.2,0.8-1.8c0.3-0.3,0.6-0.6,1-0.8c0.4-0.2,0.7-0.3,1.2-0.3
			H452c0.4,0,0.8,0.1,1.1,0.3s0.6,0.4,0.9,0.6c0.3,0.3,0.5,0.6,0.6,0.9c0.2,0.3,0.3,0.7,0.3,1v10.9h2.4v3.2H454.9z M434.8,93h-2.1
			c-0.1,0-0.3,0.1-0.4,0.2c-0.1,0.1-0.2,0.3-0.2,0.4v9.8h2.7V93z M442.3,93h-2.8v10.4h2.8V93z M449.6,93.7c0-0.2-0.1-0.4-0.2-0.5
			c-0.1-0.1-0.3-0.2-0.5-0.2h-2.1v10.4h2.7V93.7z M449.6,106.7h-2.7v11.2h2.2c0.1,0,0.3-0.1,0.4-0.2c0.1-0.1,0.2-0.2,0.2-0.3V106.7z
			"/>
	</g>
</g>
</svg>
